<svg xmlns="http://www.w3.org/2000/svg" width="324.65" height="49" viewBox="0 0 324.65 49">
  <g id="logo" transform="translate(-177.875 -95.7)">
    <path id="パス_76" data-name="パス 76" d="M22.725.9V-1.3h-11.2C7.275-1.3,4.3-2.2,4.3-5.9c0-2.65,2.025-4.75,6.85-6.05a57.94,57.94,0,0,1,11.575-1.675V-16a77.3,77.3,0,0,0-12.05,1.875,15.424,15.424,0,0,0-1.525.475l-1-6.475H5.725l1.175,7.4C3.3-10.95,1.875-8.4,1.875-5.825,1.875-.775,5.65.9,11.3.9ZM53.65-6.675v-3.9H51.3V-6.85c0,3.85-2.325,5.675-5.825,5.675h-2.7c-4.45,0-5.4-2-5.4-4.925V-8.725H48.6v-2.15H37.375V-15.95h15.8v-2.1h-15.8v-2.025H35.1v2.025H32.35v2.1H35.1v5.075H32.4v2.15h2.7V-5.9c0,3.975,1.6,6.95,7.45,6.95H45.5C50.175,1.05,53.65-1.4,53.65-6.675ZM83.95-3.05V-5.725a33.182,33.182,0,0,0-5.7-1.825v-3.675H83.6v-2.05H78.25V-16.6H83.6v-2.025H78.25v-1.55H75.975v1.55H63V-16.6H75.975v3.325H63v2.05H75.975V-8a32.176,32.176,0,0,0-5.325-.475c-4.8,0-7.125,2.1-7.125,4.9,0,2.575,1.9,4.6,7.025,4.6,5.975,0,8-1.875,7.85-5.325l-.05-1.075a27.157,27.157,0,0,1,5.6,2.325ZM76.125-4.9c0,2.725-1.225,3.975-5.625,3.975-3,0-4.575-1.075-4.575-2.725,0-1.725,1.525-2.95,4.775-2.95a25.242,25.242,0,0,1,5.375.65l.025.45C76.1-5.3,76.125-5.1,76.125-4.9ZM114.5-9.75c0-5.525-3.625-9.05-9.8-9.05a48.111,48.111,0,0,0-11.725,1.925v2.525A44.585,44.585,0,0,1,104.6-16.475c4.725,0,7.425,2.65,7.425,6.775,0,5.575-4.65,8.15-10.7,8.15h-3.8V.725H101.2C108.25.725,114.5-2.1,114.5-9.75Zm30.975,3.125H143.55L141.1-3.8a11.931,11.931,0,0,1-1.95-4.475h5.425V-20.35h-11.35V-.3H132.4v2c4.575,0,6.275-.15,7.75-.875v-2.25a9.536,9.536,0,0,1-4.825,1.1v-7.95h2.025c.875,4.35,3.375,8.45,7.9,9.975V-.6a8.242,8.242,0,0,1-3.2-2.075ZM131.55,1.025V-20.35h-8.125V1.025Zm10.9-16.2h-7.125v-3.25h7.125Zm0,4.975h-7.125v-3.275h7.125Zm-12.8-3.65H125.3V-18.5h4.35Zm0,6.475H125.3V-12h4.35Zm0,6.525H125.3v-4.7h4.35ZM170.025-15.2v-2.275L165.7-19.7v2.175ZM175.6-3.275v-2.2l-1.75.275V-20.8h-2.225V-4.875l-7.3,1.05v2.2l7.3-1.05V1.7h2.225V-3ZM170.025-8.55v-2.275L165.7-13.05v2.2Zm-6,3.25V-7.65l-4.35-3.125V-12.65h4.35v-1.975h-4.35v-3.15a13.419,13.419,0,0,0,3.55-.875V-20.8c-1.6.875-5.075,1.475-10.15,1.475v1.95c1.65,0,3.125-.05,4.45-.15v2.9h-4.45v1.975h4.45v.175a13.954,13.954,0,0,1-4.45,8.025v2.875a16.17,16.17,0,0,0,4.45-5.525V1.7h2.15V-8.5Zm41-5.6v-8H187.8c0,4.275-1,6.55-3.6,7.825v2.4c3.825-1.35,5.35-4.4,5.525-8.025h13.05v5.625c0,6.675-4.025,9.925-11.875,9.925h-4.825V1.075h4.9C200.75,1.075,205.025-3.55,205.025-10.9Zm29.85.125v-9H232.6v8.85c0,6.175-2.75,9.825-11,9.825h-3.775V1.125H221.8C231.175,1.125,234.875-3.175,234.875-10.775Zm-17.25,3.45v-12.45H215.35v12.45ZM265.1-16.25V-18.5H245.85v2.25ZM266.025.675V-1.55H244.85V.675ZM286.4-6.075l-.875-9.725h-1.9l.775,9.725Zm8.05-4.2V-15.9h-1.925v5.375c0,6.325-3.425,9.65-11.225,9.65h-2.75v1.9h2.75c9.1,0,13.15-4,13.15-11.3Zm-14.175,4.2L279.4-15.8h-1.9l.825,9.725Zm46.25-4.825v-8H309.3c0,4.275-1,6.55-3.6,7.825v2.4c3.825-1.35,5.35-4.4,5.525-8.025h13.05v5.625c0,6.675-4.025,9.925-11.875,9.925h-4.825V1.075h4.9C322.25,1.075,326.525-3.55,326.525-10.9Z" transform="translate(176 143)" fill="#a39154"/>
    <path id="パス_77" data-name="パス 77" d="M12.833-9.889H4.1v4.162h8.729Zm-.74,1.74H4.814V-9.237h7.279Zm0,1.769H4.814V-7.54h7.279Zm1.8-5.206H1.6v6.119a25.866,25.866,0,0,1-.29,3.524A6.407,6.407,0,0,1,.479.479l.624.609a7.75,7.75,0,0,0,1.015-3,29.067,29.067,0,0,0,.29-3.553v-5.409H13.891Zm-1.51,6.844H4.1V-4.1h6.7a10.405,10.405,0,0,1-2.465.9H8.062v.769H2.813v.7H8.062V-.276c0,.334-.087.58-.537.566L5.771.261l.174.856H7.758c1.131,0,1.131-.609,1.131-1.073V-1.74h5v-.7h-5v-.3a19.577,19.577,0,0,0,3.5-1.334Zm8.41-4.336a13.118,13.118,0,0,0,.885-2.45l-.8-.218A14.174,14.174,0,0,1,17.92-5.975l.609.58a13.132,13.132,0,0,0,1.9-2.944h3.813v3.553H19.067v.769h5.177v3.9h-6.22V.638H31.277V-.116H25.056v-3.9h5.133v-.769H25.056V-8.338h5.713v-.74H25.056v-3.074h-.812v3.074ZM40.847-4.8A6.448,6.448,0,0,1,35.322.348l.493.725A7.341,7.341,0,0,0,41.659-4.8H46.2a19.532,19.532,0,0,1-.507,4.669C45.472.3,45.022.3,44.457.29L42.282.261l.16.87h2.117c1.029,0,1.624-.13,1.986-1.131a28.725,28.725,0,0,0,.479-5.5H41.8c.174-1.117.218-1.624.247-2h-.841a13.931,13.931,0,0,1-.217,2h-4.06v.7ZM39.222-9.556a15.364,15.364,0,0,0-1.407-2.407l-.754.3a19.931,19.931,0,0,1,1.392,2.436Zm3.523-.261A16.136,16.136,0,0,0,41.311-12.3l-.711.363a17.108,17.108,0,0,1,1.407,2.479ZM45.6-8.99a22.278,22.278,0,0,0,1.566-2.741l-.855-.3A16.291,16.291,0,0,1,44.646-8.99H35.815v3.059h.8V-8.28H47.473v2.349h.855V-8.99Zm13.253-2.059a10.545,10.545,0,0,0,2.45-.507l-.493-.609a19.073,19.073,0,0,1-4.973.609l.232.7c.565-.015,1.218-.015,2.146-.116v1.146H55.506v.638h2.712v1H55.781v4.35h2.436v1.174H55.752v.624h2.465V-.58c-1.682.174-2.436.218-2.929.232l.131.725a53.45,53.45,0,0,0,5.887-.711v-.681c-.551.087-1.392.232-2.45.362V-2.045h2.45v-.624h-2.45V-3.843h2.45v-4.35h-2.45v-1H61.7v-.638H58.855Zm-.638,4.713H56.434V-7.583h1.784Zm0,1.885H56.434v-1.32h1.784Zm2.451-1.885H58.855V-7.583h1.813Zm0,1.885H58.855v-1.32h1.813ZM63.45-8.424h1.493V-6.7c0,1.349,0,5.8-.493,6.685a.653.653,0,0,1-.711.334L62.712.29l.131.841h.783A1.463,1.463,0,0,0,65.163.29c.522-1.1.522-3.64.522-9.483H63.452v-2.973h-.739v2.973h-.9v.768h.9V-7c0,4.089-.739,5.9-2.015,7.7l.609.479C62.6-.711,63.452-2.668,63.452-7Zm-8.715-.145a16.912,16.912,0,0,0,.928-3.5l-.739-.1a11.994,11.994,0,0,1-2.349,5.873l.363.74A6.08,6.08,0,0,0,53.983-7V1.131h.754ZM70.25-5.089a19.226,19.226,0,0,0,2.05-.392V.885h9.77v-7.41H75.748a14.658,14.658,0,0,0,4.509-2.726L79.634-9.8c-2.581,2.277-5.452,3.393-9.715,4ZM81.258-2.161H73.109V-3.669h8.149Zm0-3.712V-4.35H73.109V-5.684c.464-.116.522-.13.7-.188Zm0,6.076H73.109V-1.479h8.149ZM70.571-8.25a10.078,10.078,0,0,0,3.886-3.132l-.7-.435A8.429,8.429,0,0,1,70.064-9ZM79.2-11.4a9.818,9.818,0,0,0,3.972,3.15L83.636-9a10.024,10.024,0,0,1-3.813-2.856Zm-1.943-.754H76.4v2.828c0,.333-.217.319-.362.319l-1.6-.029.145.783h1.755c.653,0,.913-.261.913-.87ZM98.15-7.975a13.164,13.164,0,0,0-1.682-.943,10.412,10.412,0,0,0,.479-2.045h2.784A20.124,20.124,0,0,1,99.4-7.105c-.116.464-.246.71-.769.7l-1.2-.043.188.885H98.73c1.03,0,1.232-.421,1.378-.972a24.57,24.57,0,0,0,.421-5.162h-7.1v.74h2.755a7.762,7.762,0,0,1-.377,1.74c-.58-.247-.942-.377-1.769-.653l-.363.609c.855.29,1.276.464,1.841.711a6.268,6.268,0,0,1-2.639,2.581l.551.667a7.036,7.036,0,0,0,2.755-2.929,9.732,9.732,0,0,1,1.581.942ZM88-11.7v.725h4.277V-11.7Zm.073,8.1V.87h4.205V-3.6ZM91.553.2h-2.74V-2.914h2.741ZM87.58-9.7V-9h5.162v-.7ZM88-7.714V-7h4.277v-.711ZM88-5.6v.652h4.277V-5.6ZM93.424.232a14.126,14.126,0,0,0,.87-3.6l-.74-.116a11.236,11.236,0,0,1-.928,3.393ZM95.15-3.683V-.261c0,1.088.769,1.088,1.189,1.088H97.73c.971,0,1.189-.377,1.319-2.161l-.8-.232C98.223.1,98.049.1,97.614.1h-1.2c-.493,0-.493-.145-.493-.464V-3.683Zm3.045-.377a10.112,10.112,0,0,0-2.407-1.827l-.493.6A10.069,10.069,0,0,1,97.659-3.45Zm2.842,3.987A15.324,15.324,0,0,0,99.412-3.8l-.711.276A12.729,12.729,0,0,1,100.224.16Zm10.208-.189a4.972,4.972,0,0,1-3.263-3.248,14.908,14.908,0,0,0,.551-2.349l-.8-.13A12.529,12.529,0,0,1,104.864.479l.609.594a12.273,12.273,0,0,0,2.146-3.553A6.182,6.182,0,0,0,113.607.841h4.669l.13-.754h-4.915a7.414,7.414,0,0,1-1.436-.13V-3.625h4.9v-.711h-4.9V-7.38h4.176v-.74h-9.164v.74h4.176Zm-.015-11.89v1.262h-6v3h.812v-2.276H117.28V-7.89h.841v-3h-6.047v-1.262Zm32.147,8.541h-2.8v-1.6h2.465v-.667h-2.465V-6.931h-.768v1.058h-2.827V-6.931H136.2v1.058h-2.277v.667H136.2v1.6h-2.581v.652h9.758Zm-3.567,0h-2.827v-1.6h2.827Zm-6.656-6.148a13.04,13.04,0,0,0-2.2-2.2l-.536.58a15.108,15.108,0,0,1,2.16,2.146Zm.348-2.1v.652h3.465v1.03h-3.176v2.015a.765.765,0,0,0,.268.6.765.765,0,0,0,.632.171h2.291c.667,0,1.029-.087,1.131-1.45l-.682-.2c-.13,1-.2,1-.449,1h-2.189c-.275,0-.275-.044-.275-.363v-1.1h3.161v-2.349Zm-3.379,5.438v.783h1.8v4.423A12.657,12.657,0,0,1,129.978.507l.522.682a15.45,15.45,0,0,0,1.928-1.958,3.212,3.212,0,0,0,1.581,1.2,8.167,8.167,0,0,0,2.508.435h6.859l.13-.769h-6.858a8.96,8.96,0,0,1-2.523-.392,1.994,1.994,0,0,1-1.406-1.957V-6.424Zm8.265-5.438v.652H141.8v1.03h-3.18v1.9c0,.435.043.885.9.885h2.58c1.044,0,1.1-.71,1.131-1.508l-.7-.218c-.087.957-.1,1.073-.566,1.073h-2.3c-.16,0-.319.014-.319-.334V-9.512h3.19v-2.349ZM134.531-.609a8.358,8.358,0,0,0,2.712-1.436l-.536-.536a10.045,10.045,0,0,1-2.654,1.363Zm5.046-1.349A8.739,8.739,0,0,0,142.753-.45l.421-.682a8.081,8.081,0,0,1-3.089-1.392Zm14.2,1.7a4.972,4.972,0,0,1-3.262-3.248,14.911,14.911,0,0,0,.551-2.349l-.8-.13A12.529,12.529,0,0,1,147.393.479l.609.594a12.273,12.273,0,0,0,2.146-3.553A6.182,6.182,0,0,0,156.136.841H160.8l.131-.754H156.02a7.414,7.414,0,0,1-1.436-.13V-3.625h4.9v-.711h-4.9V-7.38h4.176v-.74H149.6v.74h4.176Zm-.014-11.89v1.262h-6v3h.812v-2.276H159.8v2.276h.841v-3H154.6v-1.262Zm22.75,6.757a10.985,10.985,0,0,0,1.378.8l.435-.711a12.287,12.287,0,0,1-1.682-.856,8.948,8.948,0,0,0,1.029-1.305l-.58-.377a8.663,8.663,0,0,1-1.044,1.29,6.045,6.045,0,0,1-1.566-1.682h3.64v-.653h-5.409c.116-.276.145-.377.275-.769l-.74-.072a5.749,5.749,0,0,1-.348.841h-3.669v.653h3.306a7.779,7.779,0,0,1-1.421,1.653c-.943-.928-1.059-1.03-1.247-1.218l-.522.479c.189.159.812.8,1.2,1.189a9.547,9.547,0,0,1-1.566.943l.479.58a8.029,8.029,0,0,0,1-.551V-2.1h3.089V-.07c0,.334,0,.493-.377.493L170.65.391l.2.74h1.363c.508,0,1.146,0,1.146-.9V-2.1H176.5Zm-.725.928h-5.6V-5.539h5.6Zm-5.061-1.711a8.747,8.747,0,0,0,1.653-2.059h1.334a6.981,6.981,0,0,0,1.74,2.059Zm5.061,3.451h-5.6V-3.857h5.6ZM166.9-5.51c-.363.247-1.348.914-2.088,1.363L165-3.32a14.8,14.8,0,0,0,1.885-1.407A8.038,8.038,0,0,1,164.908.522l.522.652c1.406-1.465,2.233-3.35,2.233-6.975V-10.18H178.2v-.711h-5.452v-1.276h-.8v1.276h-5.061Zm-.507-1.769a18.789,18.789,0,0,0-.943-2.538l-.624.29a21.752,21.752,0,0,1,.827,2.552ZM167.866.754A11.407,11.407,0,0,0,171-1.131l-.565-.464A11.815,11.815,0,0,1,167.39.145Zm6.917-1.9A10.82,10.82,0,0,0,177.944.711l.464-.667a9.678,9.678,0,0,1-3.059-1.711Zm17.951-4.133a11.787,11.787,0,0,0,2.61,1.755l.42-.739a7.884,7.884,0,0,1-3.654-2.7h3.538v-.653h-6.235v-1.07h5.206v-.623h-5.206v-1.03h5.771v-.638H191.69c.261-.435.507-.943.566-1.059l-.812-.159a10.963,10.963,0,0,1-.522,1.218H187.37a9.123,9.123,0,0,0-.667-1.218l-.74.232a6.011,6.011,0,0,1,.58.986H182.86v.638h5.757v1.03h-5.249v.623h5.249v1.073h-6.293v.653h3.77A9.922,9.922,0,0,1,182.179-4.2l.45.682a10.52,10.52,0,0,0,2.349-1.392V.131c-.3.029-1.812.174-2.146.174l.043.74c1.349-.116,4.858-.479,6.554-.783l-.014-.653a29.273,29.273,0,0,1-3.683.449v-2h2.378c1.218,1.349,3.146,2.509,7.25,2.973L195.6.29a18.66,18.66,0,0,1-3.741-.609,19.284,19.284,0,0,0,2.2-1.871l-.624-.435a11.783,11.783,0,0,1-2.32,2.03,6.413,6.413,0,0,1-2.1-1.349h3.712Zm-.768,1.16H185.73v-.928h6.235Zm-2.538-1.494V-6.5h-.812v.885h-2.8a4.863,4.863,0,0,0,1.131-1.348h4.335a5.119,5.119,0,0,0,1.073,1.348Zm2.538,3.074H185.73V-3.553h6.235Zm18.313-5.438A13.165,13.165,0,0,0,208.6-8.92a10.412,10.412,0,0,0,.479-2.045h2.784a20.124,20.124,0,0,1-.333,3.857c-.116.464-.247.71-.769.7l-1.2-.043.188.885h1.117c1.029,0,1.232-.421,1.378-.972a24.569,24.569,0,0,0,.421-5.162h-7.1v.74h2.755a7.762,7.762,0,0,1-.377,1.74c-.58-.247-.943-.377-1.769-.653l-.363.609c.855.29,1.276.464,1.842.711A6.268,6.268,0,0,1,205-5.974l.551.667a7.036,7.036,0,0,0,2.755-2.929,9.732,9.732,0,0,1,1.581.942ZM200.129-11.7v.725h4.277V-11.7Zm.071,8.1V.87H204.4V-3.6ZM203.68.2h-2.74V-2.914h2.74Zm-3.973-9.9V-9h5.162v-.7Zm.421,1.987V-7H204.4v-.711Zm0,2.117v.652H204.4V-5.6ZM205.552.232a14.127,14.127,0,0,0,.87-3.6l-.74-.116a11.236,11.236,0,0,1-.928,3.393Zm1.726-3.915V-.261c0,1.088.768,1.088,1.189,1.088h1.392c.972,0,1.189-.377,1.32-2.161l-.8-.232C210.351.1,210.177.1,209.742.1h-1.2c-.493,0-.493-.145-.493-.464V-3.683Zm3.045-.377a10.112,10.112,0,0,0-2.407-1.827l-.493.595a10.069,10.069,0,0,1,2.363,1.842Zm2.842,3.987A15.323,15.323,0,0,0,211.54-3.8l-.71.276A12.729,12.729,0,0,1,212.352.16Zm10.208-.189a4.972,4.972,0,0,1-3.262-3.248,14.907,14.907,0,0,0,.551-2.349l-.8-.13a12.529,12.529,0,0,1-2.87,6.468l.609.594a12.273,12.273,0,0,0,2.146-3.553A6.182,6.182,0,0,0,225.736.841H230.4l.131-.754H225.62a7.414,7.414,0,0,1-1.436-.13V-3.625h4.9v-.711h-4.9V-7.38h4.176v-.74H219.2v.74h4.176Zm-.014-11.89v1.262h-6v3h.812v-2.276H229.4V-7.89h.841v-3H224.2v-1.262ZM242-6.395V-8.381h-.783v2.2l-1.3.348.217.609,1.088-.261v5.22c0,1.059.71,1.059,1.421,1.059H246.4c1.29,0,1.32-.74,1.378-2.451l-.827-.247a6.641,6.641,0,0,1-.13,1.653c-.073.3-.261.3-.638.3h-3.654c-.435,0-.522-.015-.522-.565V-5.684l1.769-.449V-1.3h.768V-6.337l1.914-.479v2c0,1.45-.058,1.609-.566,1.581l-.971-.044.131.754h.87c1.015,0,1.29-.406,1.32-1.769.014-.493.014-2.915.014-3.495l-2.712.725V-9.077h-.768v2.219ZM239.854-7.86a8.345,8.345,0,0,0,1.682-1.9H247.8v-.682h-5.843a7.119,7.119,0,0,0,.71-1.609l-.754-.16a8.218,8.218,0,0,1-2.6,3.756Zm-5.278-2.3v.74h1.465v3.132c0,4.437-1.03,5.858-1.6,6.656l.638.638c1.7-2.451,1.725-5.235,1.725-7.453h1.9a57.871,57.871,0,0,1-.334,6.163.768.768,0,0,1-.884.58l-1.147-.03.189.856h1.059a1.469,1.469,0,0,0,1.58-1.32,55.144,55.144,0,0,0,.3-6.946h-2.654V-9.425H239.9v-.74h-2.335v-1.972h-.783v1.972Zm24.2-1.6v.261c0,2.016,0,3.2-1.406,4.278l.551.609c1.392-1.145,1.609-2.32,1.624-4.408h2.784V-8.14c0,.624.189.914.885.914h.913c.754,0,.957-.536,1.087-2.233l-.768-.247c-.087,1.6-.261,1.711-.551,1.711h-.421c-.3,0-.392-.087-.392-.406V-11.76Zm-6.322,0v.7h4.234v-.7Zm0,4.1v.725h4.234v-.725Zm0,4.132V.9h4.234V-3.524ZM255.954.2h-2.77V-2.842h2.77Zm9.295.116a11.021,11.021,0,0,1-3.466-1.653,10.755,10.755,0,0,0,2.349-3.958V-6.02h-6.51v.754h5.655a9.121,9.121,0,0,1-2.117,3.408,7.8,7.8,0,0,1-1.943-2.973l-.681.334a8.671,8.671,0,0,0,2.03,3.161,8.972,8.972,0,0,1-3.147,1.6l.348.769A10.368,10.368,0,0,0,261.188-.8a13.206,13.206,0,0,0,3.625,1.929ZM251.937-9.657v.7h5.206v-.7Zm.522,4.1v.71h4.234v-.71Z" transform="translate(208 108)" fill="#a39154"/>
  </g>
</svg>
