<svg xmlns="http://www.w3.org/2000/svg" xmlns:xlink="http://www.w3.org/1999/xlink" width="280" height="43" viewBox="0 0 280 43">
  <defs>
    <clipPath id="clip-path">
      <rect id="長方形_96" data-name="長方形 96" width="57" height="43" fill="none"/>
    </clipPath>
  </defs>
  <g id="logo" transform="translate(-110 -52)">
    <path id="パス_106" data-name="パス 106" d="M9.264-13.575H3.138v2.921H9.264Zm-.519,1.221H3.637v-.763H8.745Zm0,1.242H3.637v-.814H8.745Zm1.262-3.653H1.378v4.294A18.153,18.153,0,0,1,1.174-8a4.5,4.5,0,0,1-.58,1.7l.438.427a5.439,5.439,0,0,0,.712-2.107,20.4,20.4,0,0,0,.2-2.493v-3.8h8.06Zm-1.058,4.8H3.138v.448h4.7a7.3,7.3,0,0,1-1.73.631H5.916v.539H2.232v.488H5.916v1.028c0,.234-.061.407-.377.4l-1.231-.02.122.6H5.7c.794,0,.794-.427.794-.753V-7.856h3.511v-.488H6.5v-.214a13.739,13.739,0,0,0,2.453-.936ZM12.816-13a9.206,9.206,0,0,0,.621-1.72l-.56-.153a9.947,9.947,0,0,1-2.076,4.05l.427.407a9.216,9.216,0,0,0,1.333-2.066h2.676v2.493H11.6v.539h3.633v2.737H10.872v.529h9.3v-.529H15.808V-9.453h3.6v-.539h-3.6v-2.493h4.01V-13h-4.01v-2.157h-.57V-13Zm12.039,3A4.526,4.526,0,0,1,20.977-6.39l.346.509A5.152,5.152,0,0,0,25.425-10H28.61a13.708,13.708,0,0,1-.356,3.277c-.153.305-.468.305-.865.3l-1.526-.02.112.611H27.46c.723,0,1.14-.092,1.394-.794a20.16,20.16,0,0,0,.336-3.857H25.526c.122-.784.153-1.14.173-1.4h-.59a9.776,9.776,0,0,1-.153,1.4H22.107V-10Zm-1.14-3.338a10.782,10.782,0,0,0-.987-1.689l-.529.214a13.988,13.988,0,0,1,.977,1.71Zm2.473-.183a11.325,11.325,0,0,0-1.007-1.74l-.5.254a12.006,12.006,0,0,1,.987,1.74Zm2,.58a15.635,15.635,0,0,0,1.1-1.923l-.6-.214a11.433,11.433,0,0,1-1.17,2.137h-6.2V-10.8h.56v-1.649h7.622V-10.8h.6v-2.147Zm7.266-1.445a7.4,7.4,0,0,0,1.72-.356l-.346-.427a13.386,13.386,0,0,1-3.491.427l.163.488c.4-.01.855-.01,1.506-.081v.8h-1.9v.448h1.9v.7H33.3v3.053h1.71v.824h-1.73v.438h1.73v1.028c-1.18.122-1.71.153-2.056.163l.092.509a37.512,37.512,0,0,0,4.132-.5v-.478c-.387.061-.977.163-1.72.254v-.977h1.72v-.438h-1.72v-.824h1.72v-3.053h-1.72v-.7h1.995v-.448H35.459Zm-.448,3.307H33.759v-.875h1.252Zm0,1.323H33.759v-.926h1.252Zm1.72-1.323H35.459v-.875h1.272Zm0,1.323H35.459v-.926h1.272Zm1.954-2.788h1.048v1.211c0,.946,0,4.071-.346,4.691a.458.458,0,0,1-.5.234l-.723-.02.092.59h.55a1.027,1.027,0,0,0,1.079-.59c.366-.773.366-2.554.366-6.655H38.685v-2.086h-.519v2.086h-.631v.539h.631v1c0,2.87-.519,4.142-1.415,5.4l.427.336c.906-1.323,1.506-2.7,1.506-5.74Zm-6.116-.1A11.869,11.869,0,0,0,33.22-15.1l-.519-.071a8.418,8.418,0,0,1-1.649,4.121l.254.519a4.267,4.267,0,0,0,.733-1.018v5.709h.529Zm8.854,2.442a13.493,13.493,0,0,0,1.435-.275v4.467h6.859v-5.2H45.279a10.287,10.287,0,0,0,3.165-1.913l-.438-.387A12.072,12.072,0,0,1,41.188-10.7Zm7.724,2.056H43.427V-9.209h5.719Zm0-2.605v1.069H43.427v-.936c.326-.081.366-.092.488-.132Zm0,4.264H43.427v-1.18h5.719Zm-7.5-5.933a7.073,7.073,0,0,0,2.727-2.2l-.488-.305a5.916,5.916,0,0,1-2.595,1.974ZM47.7-14.633a6.891,6.891,0,0,0,2.788,2.208l.326-.529a7.035,7.035,0,0,1-2.676-2Zm-1.364-.529h-.6v1.984c0,.234-.153.224-.254.224l-1.119-.02.1.55H45.7c.458,0,.641-.183.641-.611Zm12.629,2.931a9.24,9.24,0,0,0-1.18-.661,7.307,7.307,0,0,0,.336-1.435h1.954a14.123,14.123,0,0,1-.234,2.707c-.081.326-.173.5-.539.488l-.845-.031.132.621h.784c.723,0,.865-.3.967-.682a17.244,17.244,0,0,0,.3-3.623H55.649v.519h1.934a5.447,5.447,0,0,1-.265,1.221c-.407-.173-.661-.265-1.242-.458l-.254.427c.6.2.9.326,1.292.5a4.4,4.4,0,0,1-1.852,1.811l.387.468a4.938,4.938,0,0,0,1.934-2.056,6.831,6.831,0,0,1,1.109.661Zm-7.124-2.615v.509h3v-.509Zm.051,5.689v3.134h2.951V-9.158Zm2.442,2.666H52.413V-8.68h1.923Zm-2.788-6.951v.488H55.17v-.488Zm.3,1.394v.5h3v-.5Zm0,1.486v.458h3v-.458Zm3.806,4.091A9.914,9.914,0,0,0,56.259-9l-.519-.081A7.886,7.886,0,0,1,55.089-6.7ZM56.86-9.219v2.4c0,.763.539.763.834.763h.977c.682,0,.834-.265.926-1.516l-.56-.163c-.02,1.17-.142,1.17-.448,1.17h-.845c-.346,0-.346-.1-.346-.326v-2.33ZM59-9.484a7.1,7.1,0,0,0-1.689-1.282l-.346.417A7.066,7.066,0,0,1,58.62-9.056Zm1.995,2.8A10.754,10.754,0,0,0,59.852-9.3l-.5.193a8.934,8.934,0,0,1,1.069,2.585Zm5.129-.132a3.49,3.49,0,0,1-2.29-2.28,10.463,10.463,0,0,0,.387-1.649l-.56-.092A8.793,8.793,0,0,1,61.643-6.3l.427.417a8.614,8.614,0,0,0,1.506-2.493,4.338,4.338,0,0,0,4.2,2.33h3.277l.092-.529H67.7a5.2,5.2,0,0,1-1.007-.092V-9.178h3.44v-.5H66.69v-2.137h2.931v-.519H63.189v.519H66.12Zm-.01-8.345v.885H61.9v2.107h.57v-1.6h7.887v1.6h.59v-2.107H66.7v-.885ZM77.7-13.748a10.6,10.6,0,0,0,.4-1.17l-.529-.122a8.233,8.233,0,0,1-1.75,3.307l.509.305a6.833,6.833,0,0,0,1.15-1.811h2.239v2.218H75.3v.509h3.083c-.051,1.954-.57,3.5-3.083,4.121l.254.59c2.615-.794,3.318-2.534,3.419-4.712h1.811V-6.8c0,.723.214.8.906.8h1.75c.56,0,.987,0,1.15-1.974l-.58-.163a6.09,6.09,0,0,1-.193,1.313c-.092.285-.183.285-.509.285H81.629c-.275,0-.3-.01-.3-.285v-3.694h3.287v-.509H80.276v-2.218h3.816v-.509H80.276v-1.425h-.56v1.425Zm11.845.122a11.127,11.127,0,0,0,.723-1.384L89.74-15.2a7.123,7.123,0,0,1-2.432,3.256l.387.458a7.8,7.8,0,0,0,1-.987v4.783h6.116v-.488H92.07V-9.6h2.249v-.478H92.07v-1.292h2.249v-.478H92.07v-1.282h2.564v-.5H92.07a8.992,8.992,0,0,0,.7-1.4l-.519-.163a7.54,7.54,0,0,1-.723,1.567Zm1.984,3.552h-2.28v-1.292h2.28Zm0-1.771h-2.28v-1.282h2.28Zm0,3.664h-2.28V-9.6h2.28Zm-3.959-5.251a9.114,9.114,0,0,0-1.638-1.537l-.377.417a9.758,9.758,0,0,1,1.577,1.516Zm-2.086,2.31v.539h1.17V-7.55a7.95,7.95,0,0,1-1.292,1.14l.315.55a12.251,12.251,0,0,0,1.384-1.384c.773,1.119,2,1.15,3.094,1.15h4.569l.163-.529H90.137c-1.038,0-2.91,0-2.91-1.9v-2.6Zm15.356.611a9,9,0,0,0,.122-1.74h2.88v-.5H99.163a8.38,8.38,0,0,0,.407-.987l-.5-.163a5.518,5.518,0,0,1-1.72,2.666l.427.346a5.592,5.592,0,0,0,1.109-1.364h1.577a8.131,8.131,0,0,1-.132,1.74H97.22v.5h2.941a4.954,4.954,0,0,1-3.134,2.544L97.413-7a4.989,4.989,0,0,0,3.287-3.012h.112a6,6,0,0,0,3.521,2.931l.285-.529a5.241,5.241,0,0,1-3.236-2.4h3.063v-.5Zm-4.824-4.274v8.772h8.874v-.5h-8.3v-7.8h8.1v-.478ZM113.96-10.42a7.709,7.709,0,0,0,.967.56l.305-.5a8.623,8.623,0,0,1-1.18-.6,6.282,6.282,0,0,0,.723-.916l-.407-.265a6.079,6.079,0,0,1-.733.906,4.242,4.242,0,0,1-1.1-1.18h2.554v-.458h-3.8c.081-.193.1-.265.193-.539l-.519-.051a4.04,4.04,0,0,1-.244.59h-2.575v.458h2.32a5.459,5.459,0,0,1-1,1.16c-.661-.651-.743-.723-.875-.855l-.366.336c.132.112.57.56.845.834a6.7,6.7,0,0,1-1.1.661l.336.407a5.635,5.635,0,0,0,.7-.387V-8.11h2.168v1.425c0,.234,0,.346-.265.346l-1.069-.02.142.519h.957c.356,0,.8,0,.8-.631V-8.11h2.208Zm-.509.651h-3.928v-.753h3.928Zm-3.552-1.2a6.139,6.139,0,0,0,1.16-1.445H112a4.9,4.9,0,0,0,1.221,1.445Zm3.552,2.422h-3.928v-.794h3.928ZM107.213-10.5c-.254.173-.946.641-1.465.957l.132.58a10.389,10.389,0,0,0,1.323-.987,5.641,5.641,0,0,1-1.384,3.684l.366.458c.987-1.028,1.567-2.351,1.567-4.895v-3.073h7.4v-.5h-3.826v-.9h-.56v.9h-3.552Zm-.356-1.242a13.185,13.185,0,0,0-.661-1.781l-.438.2a15.266,15.266,0,0,1,.58,1.791Zm1.038,5.638a8.005,8.005,0,0,0,2.2-1.323l-.4-.326a8.292,8.292,0,0,1-2.137,1.221Zm4.854-1.333a7.594,7.594,0,0,0,2.218,1.3l.326-.468a6.792,6.792,0,0,1-2.147-1.2Zm7.632-4.691v1.119H117.1v.458h3.277a4.978,4.978,0,0,1-.193,1.191h-4.172v.478H120c-.3.641-.906,1.771-4.01,2.453l.3.529c1.415-.336,3.552-1.1,4.325-2.982h.041c.682,1.353,1.73,2.412,4.467,3.033l.2-.529c-2.341-.509-3.419-1.211-4.1-2.5h4.111v-.478h-4.549a4.532,4.532,0,0,0,.163-1.191h3.328v-.458h-3.318V-12.13h3.318V-12.6h-3.318v-.8h-.58v.8H117.1v.468Zm0-3.043v.865H116.29v1.995h.57v-1.506h7.622v1.506h.58v-1.995h-4.091v-.865Zm11.052,4.05v-1.394h-.55v1.547l-.916.244.153.427.763-.183v3.664c0,.743.5.743,1,.743h2.636c.906,0,.926-.519.967-1.72l-.58-.173a4.663,4.663,0,0,1-.092,1.16c-.051.214-.183.214-.448.214H131.8c-.305,0-.366-.01-.366-.4v-3.633l1.242-.315V-7.55h.539v-3.531l1.343-.336v1.4c0,1.018-.041,1.13-.4,1.109l-.682-.031.092.529h.611c.712,0,.906-.285.926-1.242.01-.346.01-2.045.01-2.453l-1.9.509V-13h-.539v1.557Zm-1.506-1.028a5.857,5.857,0,0,0,1.18-1.333h4.4v-.478h-4.1a5,5,0,0,0,.5-1.13l-.529-.112a5.768,5.768,0,0,1-1.822,2.636Zm-3.7-1.618v.519h1.028v2.2c0,3.114-.723,4.111-1.119,4.671l.448.448a8.736,8.736,0,0,0,1.211-5.231h1.323a40.619,40.619,0,0,1-.234,4.325.539.539,0,0,1-.621.407l-.8-.02.132.6h.743a1.031,1.031,0,0,0,1.109-.926,38.7,38.7,0,0,0,.214-4.875H127.79v-1.6h2.168v-.519h-1.638v-1.384h-.55v1.384Zm15.326,3.256a9,9,0,0,0,.122-1.74h2.88v-.5h-4.681a8.38,8.38,0,0,0,.407-.987l-.5-.163a5.518,5.518,0,0,1-1.72,2.666l.427.346a5.593,5.593,0,0,0,1.109-1.364h1.577a8.133,8.133,0,0,1-.132,1.74h-3.114v.5h2.941a4.954,4.954,0,0,1-3.134,2.544l.387.468a4.989,4.989,0,0,0,3.287-3.012h.112a6,6,0,0,0,3.521,2.931l.285-.529a5.241,5.241,0,0,1-3.236-2.4h3.063v-.5Zm-4.824-4.274v8.772H145.6v-.5h-8.3v-7.8h8.1v-.478Zm17.941,4.366a7.711,7.711,0,0,0,.967.56l.305-.5a8.623,8.623,0,0,1-1.18-.6,6.28,6.28,0,0,0,.723-.916l-.407-.265a6.08,6.08,0,0,1-.733.906,4.242,4.242,0,0,1-1.1-1.18H155.8v-.458H152c.081-.193.1-.265.193-.539l-.519-.051a4.037,4.037,0,0,1-.244.59h-2.575v.458h2.32a5.46,5.46,0,0,1-1,1.16c-.661-.651-.743-.723-.875-.855l-.366.336c.132.112.57.56.845.834a6.7,6.7,0,0,1-1.1.661l.336.407a5.634,5.634,0,0,0,.7-.387V-8.11h2.168v1.425c0,.234,0,.346-.265.346l-1.069-.02.142.519h.957c.356,0,.8,0,.8-.631V-8.11h2.208Zm-.509.651h-3.928v-.753h3.928Zm-3.552-1.2a6.137,6.137,0,0,0,1.16-1.445h.936a4.9,4.9,0,0,0,1.221,1.445Zm3.552,2.422h-3.928v-.794h3.928ZM147.919-10.5c-.254.173-.946.641-1.465.957l.132.58a10.39,10.39,0,0,0,1.323-.987,5.641,5.641,0,0,1-1.384,3.684l.366.458c.987-1.028,1.567-2.351,1.567-4.895v-3.073h7.4v-.5H152.03v-.9h-.56v.9h-3.552Zm-.356-1.242a13.182,13.182,0,0,0-.661-1.781l-.438.2a15.266,15.266,0,0,1,.58,1.791ZM148.6-6.105a8.006,8.006,0,0,0,2.2-1.323l-.4-.326a8.292,8.292,0,0,1-2.137,1.221Zm4.854-1.333a7.593,7.593,0,0,0,2.218,1.3L156-6.6a6.792,6.792,0,0,1-2.147-1.2Zm8.8-.519A8,8,0,0,0,160.446-9.2c.01-.254.01-.407.01-.7h2.107a6.575,6.575,0,0,0,.794,2.31,7.114,7.114,0,0,1-2.33,1.14l.275.478a9.127,9.127,0,0,0,2.351-1.18c.356.478,1.089,1.262,1.547,1.262.407,0,.753-.336,1.038-1.628l-.519-.285c-.122.611-.265,1.353-.529,1.353a2.9,2.9,0,0,1-1.13-1.038,7.8,7.8,0,0,0,1.323-1.659l-.458-.254a4.8,4.8,0,0,1-1.14,1.476,6.14,6.14,0,0,1-.672-1.974h2.931v-.448h-3.022a28.4,28.4,0,0,1-.285-4.824h-.55a30.863,30.863,0,0,0,.3,4.824h-3.1a6.379,6.379,0,0,1-.885-1.6v-.58h.967v-.5h-.967v-2.147h-.529v2.147h-1.231v.5h1.191a8.625,8.625,0,0,1-1.364,3.684l.326.519a8.478,8.478,0,0,0,1.079-2.463v4.925h.529v-5.027a4.617,4.617,0,0,0,.478.957l.387-.407V-9.9h.539c0,1.984-.214,2.87-.916,3.633l.458.4a4.66,4.66,0,0,0,.977-2.788,10.446,10.446,0,0,1,1.526,1.109Zm-1.231-4.4c.071.163.122.275.265.672-.122.01-1.1.071-1.2.071.366-.407,1.4-1.7,1.852-2.341l-.4-.254c-.112.163-.7.936-.834,1.119-.1-.1-.214-.2-.55-.509a13.131,13.131,0,0,0,1.038-1.343l-.438-.193A8.582,8.582,0,0,1,159.8-13.9c-.153-.112-.163-.122-.3-.214l-.315.366c.468.346,1.058.885,1.231,1.048-.539.692-.712.885-.916,1.119-.122.01-.183.01-.387.01l.061.468c.946-.041,1.272-.071,2.239-.163.041.1.051.153.132.417l.468-.173a8,8,0,0,0-.57-1.506Zm4.03-.173c.061.142.1.254.2.55-1,.092-1.109.092-1.384.112.3-.305,1.3-1.486,1.761-2.117l-.4-.275c-.234.336-.4.55-.865,1.13l-.519-.519c.142-.183.57-.743.9-1.262l-.458-.224a12.137,12.137,0,0,1-.763,1.191,2.307,2.307,0,0,0-.285-.214l-.3.336a10.444,10.444,0,0,1,1.109,1.079c-.132.163-.529.651-.784.916a1.381,1.381,0,0,0-.183.01l.071.478c1.109-.081,1.984-.2,2.218-.234.041.142.061.214.132.509l.488-.224a8.736,8.736,0,0,0-.488-1.435Zm-.071,1.75c-.336-.2-.4-.234-.957-.519l-.254.417c.254.122.753.407.916.509Zm2.361-4.06v8.986h.56v-5.872h3.114v-3.114Zm3.124,1.282h-2.564v-.8h2.564Zm0,1.364h-2.564V-13.1h2.564Zm1.628-2.646v3.114h3.134v4.986c0,.254-.041.377-.305.366l-.875-.031.112.55h.936c.58,0,.692-.458.692-.784v-8.2Zm3.134,1.282h-2.575v-.8h2.575Zm0,1.364h-2.575V-13.1h2.575Zm-1.262,5.332a3.279,3.279,0,0,1-2.035-1.679h2.595v-.478h-2.839a6.82,6.82,0,0,0,.112-.916h2.422V-10.4h-1.343a7.748,7.748,0,0,0,.305-.885l-.5-.1a8.816,8.816,0,0,1-.315.987h-1.628c-.1-.366-.315-.885-.377-1.038l-.529.1c.173.387.305.723.377.936h-1.364v.468h2.412a5.485,5.485,0,0,1-.1.916h-2.626v.478h2.5A2.815,2.815,0,0,1,168.77-6.8l.285.488A3.34,3.34,0,0,0,171.508-8.3,4.057,4.057,0,0,0,173.7-6.339Z" transform="translate(174.988 69.942)" fill="#fff"/>
    <path id="パス_105" data-name="パス 105" d="M19.128-11.944v-1.741H10.263c-3.364,0-5.719-.712-5.719-3.641,0-2.1,1.6-3.76,5.422-4.789a45.859,45.859,0,0,1,9.162-1.326v-1.88A61.184,61.184,0,0,0,9.59-23.837a12.208,12.208,0,0,0-1.207.376l-.792-5.125H5.672l.93,5.857c-2.849,1.4-3.977,3.423-3.977,5.461,0,4,2.988,5.323,7.46,5.323Zm20.223-6v-3.087h-1.86v2.948c0,3.047-1.84,4.492-4.611,4.492H30.743c-3.522,0-4.274-1.583-4.274-3.9v-2.078h8.885v-1.7H26.469v-4.017H38.975v-1.662H26.469v-1.6h-1.8v1.6H22.492v1.662h2.177v4.017H22.531v1.7h2.137v2.236c0,3.146,1.266,5.5,5.9,5.5H32.9C36.6-11.826,39.351-13.765,39.351-17.94Zm19.728,2.869v-2.117a26.262,26.262,0,0,0-4.512-1.444v-2.909H58.8v-1.623H54.567V-25.8H58.8v-1.6H54.567v-1.227h-1.8V-27.4H42.5v1.6h10.27v2.632H42.5v1.623h10.27v2.553a25.467,25.467,0,0,0-4.215-.376c-3.8,0-5.639,1.662-5.639,3.878,0,2.038,1.5,3.641,5.56,3.641,4.729,0,6.332-1.484,6.213-4.215l-.04-.851A21.5,21.5,0,0,1,59.079-15.071Zm-6.194-1.464c0,2.157-.97,3.146-4.452,3.146-2.375,0-3.621-.851-3.621-2.157,0-1.365,1.207-2.335,3.779-2.335a19.979,19.979,0,0,1,4.254.514l.02.356C52.866-16.852,52.885-16.693,52.885-16.535Zm26.12-3.839c0-4.373-2.869-7.163-7.757-7.163a38.08,38.08,0,0,0-9.28,1.524v2a35.29,35.29,0,0,1,9.2-1.682c3.74,0,5.877,2.1,5.877,5.362,0,4.413-3.68,6.451-8.469,6.451H65.569v1.8h2.909C74.058-12.083,79.005-14.319,79.005-20.374ZM99.268-17.9H97.744L95.8-15.664a9.443,9.443,0,0,1-1.543-3.542h4.294v-9.557H89.572v15.87h-.653v1.583c3.621,0,4.967-.119,6.134-.693v-1.781a7.548,7.548,0,0,1-3.819.871v-6.292h1.6c.693,3.443,2.671,6.688,6.253,7.9v-1.82a6.524,6.524,0,0,1-2.533-1.642ZM88.246-11.845V-28.764H81.815v16.918Zm8.627-12.822H91.234V-27.24h5.639Zm0,3.938H91.234v-2.592h5.639ZM86.742-23.619H83.3V-27.3h3.443Zm0,5.125H83.3v-3.661h3.443Zm0,5.165H83.3v-3.72h3.443Zm27.7-11.358v-1.8l-3.423-1.761v1.722Zm4.413,9.439V-16.99l-1.385.218V-29.12h-1.761v12.6l-5.778.831v1.741l5.778-.831v3.463h1.761v-3.72Zm-4.413-4.175v-1.8l-3.423-1.761v1.741ZM109.7-16.852v-1.86l-3.443-2.473v-1.484H109.7v-1.563h-3.443v-2.493a10.621,10.621,0,0,0,2.81-.693v-1.7c-1.266.693-4.017,1.167-8.034,1.167v1.543c1.306,0,2.473-.04,3.522-.119v2.3h-3.522v1.563h3.522v.139a11.044,11.044,0,0,1-3.522,6.352V-13.9a12.8,12.8,0,0,0,3.522-4.373v6.965h1.7v-8.073Zm28.2-4.432v-6.332H124.259c0,3.384-.792,5.184-2.849,6.194v1.9c3.028-1.069,4.235-3.483,4.373-6.352h10.329v4.452c0,5.283-3.186,7.856-9.4,7.856h-3.819v1.761h3.878C134.509-11.806,137.893-15.467,137.893-21.284Zm19.372.1v-7.124h-1.8v7c0,4.888-2.177,7.777-8.707,7.777H143.77v1.761h3.146C154.336-11.766,157.265-15.17,157.265-21.185Zm-13.653,2.731v-9.854h-1.8v9.854Zm33.322-7.064V-27.3H161.7v1.781Zm.732,13.4v-1.761h-16.76v1.761Zm11.873-5.343-.693-7.7h-1.5l.613,7.7Zm6.372-3.324v-4.452h-1.524v4.254c0,5.006-2.711,7.638-8.885,7.638h-2.177v1.5H185.5C192.7-11.845,195.91-15.011,195.91-20.789Zm-11.22,3.324-.693-7.7h-1.5l.653,7.7Zm32.353-3.819v-6.332H203.41c0,3.384-.791,5.184-2.849,6.194v1.9c3.027-1.069,4.235-3.483,4.373-6.352h10.329v4.452c0,5.283-3.186,7.856-9.4,7.856h-3.819v1.761h3.878C213.66-11.806,217.043-15.467,217.043-21.284Z" transform="translate(172.957 102.536)" fill="#fff"/>
    <g id="グループ_80" data-name="グループ 80" transform="translate(110 52)" clip-path="url(#clip-path)">
      <g id="グループ_79" data-name="グループ 79" transform="translate(1.131 0)">
        <path id="パス_74" data-name="パス 74" d="M77.542,79.58A3.618,3.618,0,1,1,73.9,75.988a3.618,3.618,0,0,1,3.643,3.592" transform="translate(-50.288 -54.352)" fill="#fff"/>
        <path id="パス_75" data-name="パス 75" d="M54.95,49.57a11.139,11.139,0,0,0-1.935,22.094l-.029-4.1a7.154,7.154,0,1,1,4.179-.029l.029,4.1A11.139,11.139,0,0,0,54.95,49.57" transform="translate(-31.393 -35.456)" fill="#fff"/>
        <path id="パス_76" data-name="パス 76" d="M.9,138.28,0,138.286l0-.481,2.368-.017,0,.481-.9.006.019,2.65-.572,0Z" transform="translate(0 -98.557)" fill="#fff"/>
        <path id="パス_77" data-name="パス 77" d="M12.032,139.143a1.478,1.478,0,0,1-1.486,1.658,1.449,1.449,0,0,1-1.455-1.582,1.5,1.5,0,0,1,1.479-1.651,1.444,1.444,0,0,1,1.463,1.575m-2.338.06c0,.639.331,1.144.878,1.14s.861-.52.856-1.175c0-.591-.3-1.146-.872-1.142s-.867.534-.862,1.177" transform="translate(-6.502 -98.399)" fill="#fff"/>
        <path id="パス_78" data-name="パス 78" d="M24.12,139.476c-.022-.4-.046-.89-.047-1.317H24.06c-.1.385-.229.808-.361,1.2l-.45,1.358-.44,0-.424-1.333c-.125-.4-.24-.825-.325-1.218h-.01c-.011.41-.026.91-.047,1.336l-.061,1.258-.533,0,.186-3.132.751-.005.417,1.255c.115.369.218.74.3,1.088h.014c.082-.342.186-.726.305-1.095l.425-1.258.742-.005.2,3.129-.557,0Z" transform="translate(-15.313 -98.436)" fill="#fff"/>
        <path id="パス_79" data-name="パス 79" d="M37.987,138.961a1.479,1.479,0,0,1-1.486,1.658,1.45,1.45,0,0,1-1.455-1.582,1.5,1.5,0,0,1,1.479-1.651,1.444,1.444,0,0,1,1.463,1.575m-2.338.06c0,.639.331,1.144.878,1.14s.861-.52.856-1.175c0-.591-.3-1.146-.872-1.142s-.867.534-.862,1.177" transform="translate(-25.067 -98.268)" fill="#fff"/>
        <path id="パス_80" data-name="パス 80" d="M50.074,139.294c-.022-.4-.046-.89-.047-1.317h-.013c-.1.385-.229.808-.361,1.2l-.45,1.358-.44,0-.424-1.333c-.126-.4-.241-.825-.325-1.218H48c-.011.41-.026.91-.047,1.336l-.061,1.258-.533,0,.186-3.132.751-.005.417,1.254c.115.369.218.74.3,1.088h.014c.082-.342.187-.726.305-1.095l.425-1.258.742-.005.2,3.129-.557,0Z" transform="translate(-33.877 -98.306)" fill="#fff"/>
        <path id="パス_81" data-name="パス 81" d="M61.556,139.632l-.261.887-.591,0,.983-3.137.728-.005,1.039,3.123-.614,0-.289-.883Zm.9-.438-.252-.77c-.062-.194-.115-.406-.163-.587h-.01c-.044.184-.09.4-.144.588l-.236.775Z" transform="translate(-43.42 -98.264)" fill="#fff"/>
        <path id="パス_82" data-name="パス 82" d="M70.849,137.789l-.894.006,0-.48,2.368-.017,0,.481-.9.006.019,2.65-.572,0Z" transform="translate(-50.035 -98.206)" fill="#fff"/>
        <path id="パス_83" data-name="パス 83" d="M79.617,139.654a1.584,1.584,0,0,0,.758.194c.365,0,.568-.175.566-.431,0-.237-.161-.374-.558-.516-.518-.18-.85-.455-.854-.9,0-.513.423-.9,1.1-.907a1.665,1.665,0,0,1,.751.15l-.134.462a1.353,1.353,0,0,0-.626-.144c-.363,0-.516.2-.515.381,0,.24.183.352.6.508.545.2.809.475.812.925,0,.5-.373.943-1.18.949a1.824,1.824,0,0,1-.848-.193Z" transform="translate(-56.86 -98.057)" fill="#fff"/>
        <path id="パス_84" data-name="パス 84" d="M89.42,137.177,89.433,139c0,.612.26.895.648.892.412,0,.657-.287.653-.9l-.013-1.825.572,0,.013,1.788c.007.964-.487,1.4-1.243,1.4-.722.005-1.2-.4-1.2-1.381l-.013-1.792Z" transform="translate(-63.551 -98.11)" fill="#fff"/>
        <path id="パス_85" data-name="パス 85" d="M109.709,138.788l-1.18.008.007.918,1.319-.009,0,.47-1.891.013-.022-3.13,1.822-.013,0,.47-1.25.009.006.8,1.18-.008Z" transform="translate(-77.211 -98.026)" fill="#fff"/>
        <path id="パス_86" data-name="パス 86" d="M116.918,140.113l-.009-1.3-1-1.821.654,0,.379.8c.108.23.19.406.277.618h.009c.076-.2.164-.394.267-.624l.371-.8.645,0-1.026,1.819.009,1.319Z" transform="translate(-82.905 -97.972)" fill="#fff"/>
        <path id="パス_87" data-name="パス 87" d="M128.307,138.658l-1.18.008.007.918,1.319-.009,0,.47-1.891.013-.022-3.13,1.822-.013,0,.47-1.25.009.006.8,1.18-.008Z" transform="translate(-90.513 -97.932)" fill="#fff"/>
        <path id="パス_88" data-name="パス 88" d="M145.055,139.716a2.031,2.031,0,0,1-.811.147,1.479,1.479,0,0,1-1.609-1.566,1.576,1.576,0,0,1,1.664-1.663,1.75,1.75,0,0,1,.759.133l-.121.457a1.49,1.49,0,0,0-.611-.118,1.042,1.042,0,0,0-1.089,1.159,1.024,1.024,0,0,0,1.1,1.119,1.665,1.665,0,0,0,.623-.118Z" transform="translate(-102.023 -97.731)" fill="#fff"/>
        <path id="パス_89" data-name="パス 89" d="M153.248,136.763l.572,0,.019,2.651,1.287-.009,0,.48-1.859.013Z" transform="translate(-109.614 -97.82)" fill="#fff"/>
        <path id="パス_104" data-name="パス 104" d="M0,0H.572V3.13H0Z" transform="matrix(1, -0.007, 0.007, 1, 46.063, 38.926)" fill="#fff"/>
        <path id="パス_90" data-name="パス 90" d="M166.6,139.766l-.022-3.13.653,0,.818,1.338a8.769,8.769,0,0,1,.54,1.046l.011,0c-.043-.415-.057-.818-.06-1.3l-.008-1.092.529,0,.022,3.13-.593,0-.827-1.371a10.716,10.716,0,0,1-.569-1.076l-.015,0c.026.406.036.82.04,1.334l.008,1.12Z" transform="translate(-119.147 -97.719)" fill="#fff"/>
        <path id="パス_103" data-name="パス 103" d="M0,0H.572V3.13H0Z" transform="matrix(1, -0.007, 0.007, 1, 50.708, 38.893)" fill="#fff"/>
        <path id="パス_91" data-name="パス 91" d="M184.778,139.438a2.027,2.027,0,0,1-.811.147,1.479,1.479,0,0,1-1.609-1.566,1.576,1.576,0,0,1,1.664-1.663,1.754,1.754,0,0,1,.759.133l-.121.457a1.489,1.489,0,0,0-.611-.118,1.042,1.042,0,0,0-1.089,1.159,1.024,1.024,0,0,0,1.1,1.119,1.66,1.66,0,0,0,.623-.118Z" transform="translate(-130.436 -97.532)" fill="#fff"/>
        <path id="パス_92" data-name="パス 92" d="M191.415,120.254c0,.014,0,.028,0,.042h0c0-.015,0-.029,0-.044" transform="translate(-136.914 -86.014)" fill="#fff"/>
        <path id="パス_93" data-name="パス 93" d="M.038,121.634c0-.01,0-.02,0-.03v.03" transform="translate(-0.027 -86.968)" fill="#fff"/>
        <path id="パス_94" data-name="パス 94" d="M64.033,47.993c-.19.028-.379.06-.567.092.188-.032.377-.064.567-.092" transform="translate(-45.396 -34.328)" fill="#fff"/>
        <path id="パス_95" data-name="パス 95" d="M72.225,47.254l-.318.019.318-.019" transform="translate(-51.433 -33.8)" fill="#fff"/>
        <path id="パス_96" data-name="パス 96" d="M68.653,47.512c-.113.011-.227.019-.34.032.113-.012.227-.021.34-.032" transform="translate(-48.862 -33.984)" fill="#fff"/>
        <path id="パス_97" data-name="パス 97" d="M177.928,107.061c0,.014,0,.028,0,.042l-5.369-5.294,5.37,5.3C177.929,107.091,177.928,107.076,177.928,107.061Z" transform="translate(-123.427 -72.822)" fill="#fff"/>
        <path id="パス_98" data-name="パス 98" d="M74.01,47.146c-.331,0-.66.015-.988.031.328-.017.656-.029.988-.031" transform="translate(-52.231 -33.722)" fill="#fff"/>
        <path id="パス_99" data-name="パス 99" d="M66.271,47.623q-.409.045-.813.105c.27-.039.54-.075.813-.105" transform="translate(-46.82 -34.063)" fill="#fff"/>
        <path id="パス_100" data-name="パス 100" d="M62.774,48.316l-.276.049.276-.049" transform="translate(-44.703 -34.559)" fill="#fff"/>
        <path id="パス_101" data-name="パス 101" d="M70.19,47.32q-.343.022-.683.055c.227-.021.454-.04.683-.055" transform="translate(-49.716 -33.847)" fill="#fff"/>
        <path id="パス_102" data-name="パス 102" d="M27.08,7.142a32.162,32.162,0,0,0-7.817,1l-5.545.164h0L11.159,0h0L8.717,8.343h0L.022,8.209l7.183,4.9L6.078,16.4A27.977,27.977,0,0,0,.026,34.579c0,.014,0,.028,0,.042s0,.011,0,.016A20.592,20.592,0,0,1,5.869,20.193a21.7,21.7,0,0,1,1.721-1.6l.028-.024q.3-.247.6-.484l.034-.026a22.077,22.077,0,0,1,2.664-1.762c.137-.077.272-.157.411-.231a22.242,22.242,0,0,1,2.11-.985h0l-2.188-1.642L8.559,15.516l.422-1.233L9.386,13.1l.275-.805L6.85,10.375l3.411.018.947-3.229.993,3.216,1.326-.025,1.105-.021.979-.019-2.784,1.957.957,2.674h0q.476-.184.962-.347h0c.293-.1.59-.188.889-.275l.26-.072q.354-.1.712-.184l.244-.059c.315-.072.632-.14.952-.2l.276-.049c.188-.032.377-.064.567-.092.269-.04.54-.075.813-.105.113-.012.227-.021.34-.032q.34-.032.683-.055l.318-.019c.327-.017.656-.028.987-.031,12.1-.085,21.979,9.285,22.064,20.929l5.289-5.364,5.369,5.294c0-.014,0-.028,0-.042s0-.029,0-.044A27.221,27.221,0,0,0,27.08,7.142" transform="translate(-0.016 -0.001)" fill="#fff"/>
      </g>
    </g>
  </g>
</svg>
