<svg xmlns="http://www.w3.org/2000/svg" width="205.149" height="152.9" viewBox="0 0 205.149 152.9">
  <g id="_ロゴ" transform="translate(0.026)">
    <circle id="楕円形_3" data-name="楕円形 3" cx="12.71" cy="12.71" r="12.71" transform="translate(70.43 75.98)" fill="#a39154"/>
    <path id="パス_78" data-name="パス 78" d="M82.87,49.57a39.123,39.123,0,0,0-6.8,77.6l-.1-14.4a25.124,25.124,0,1,1,14.68-.1l.1,14.4a39.124,39.124,0,0,0-7.89-77.5Z" fill="#a39154"/>
    <text id="TOMOMATSU_EYE_CLINIC" data-name="TOMOMATSU  EYE  CLINIC" transform="matrix(1, -0.007, 0.007, 1, 0.1, 148.9)" fill="#a39154" font-size="16.31" font-family="SegoeUI-Semibold, Segoe UI" font-weight="600" letter-spacing="0.03em"><tspan x="0" y="0">T</tspan><tspan y="0">OMO</tspan><tspan y="0" letter-spacing="0.02em">M</tspan><tspan y="0" letter-spacing="-0.05em">A</tspan><tspan y="0" letter-spacing="0.02em">T</tspan><tspan y="0" xml:space="preserve">SU  E</tspan><tspan y="0" letter-spacing="0.02em">Y</tspan><tspan y="0" xml:space="preserve">E  CLINIC</tspan></text>
    <path id="パス_79" data-name="パス 79" d="M191.54,120.25v.15h0Z" fill="#fff" opacity="0.5"/>
    <path id="パス_80" data-name="パス 80" d="M65.59,47.99c-.67.1-1.33.21-1.99.32C64.26,48.2,64.92,48.09,65.59,47.99Z" fill="#fff"/>
    <path id="パス_81" data-name="パス 81" d="M73.15,47.25c-.37.02-.74.04-1.12.07C72.4,47.3,72.77,47.27,73.15,47.25Z" fill="#fff"/>
    <path id="パス_82" data-name="パス 82" d="M69.64,47.51c-.4.04-.8.07-1.19.11C68.85,47.58,69.25,47.55,69.64,47.51Z" fill="#fff"/>
    <path id="パス_83" data-name="パス 83" d="M191.54,120.25v.15l-18.86-18.59,18.86,18.6v-.15h0Z" fill="#fff"/>
    <path id="パス_84" data-name="パス 84" d="M76.62,47.15c-1.16,0-2.32.05-3.47.11C74.3,47.2,75.45,47.16,76.62,47.15Z" fill="#fff"/>
    <path id="パス_85" data-name="パス 85" d="M68.44,47.62c-.96.11-1.91.23-2.85.37C66.54,47.85,67.49,47.73,68.44,47.62Z" fill="#fff"/>
    <path id="パス_86" data-name="パス 86" d="M63.59,48.32c-.32.06-.65.11-.97.17C62.94,48.43,63.26,48.37,63.59,48.32Z" fill="#fff"/>
    <path id="パス_87" data-name="パス 87" d="M72.04,47.32c-.8.05-1.6.12-2.4.19C70.44,47.44,71.24,47.37,72.04,47.32Z" fill="#fff"/>
    <path id="パス_88" data-name="パス 88" d="M95.18,25.08A112.807,112.807,0,0,0,67.73,28.6l-19.47.58h0L39.26,0h0L30.69,29.3h0L.15,28.83,25.38,46.04,21.42,57.61C7.41,74.61,0,96.96.16,121.44v.21A72.333,72.333,0,0,1,20.68,70.92a76.763,76.763,0,0,1,6.05-5.63.7.7,0,0,1,.1-.08c.7-.58,1.4-1.15,2.12-1.7l.12-.09a78.947,78.947,0,0,1,9.36-6.19c.48-.27.96-.55,1.44-.81a76.931,76.931,0,0,1,7.41-3.46h0l-7.69-5.77L30.13,54.5l1.48-4.33,1.42-4.16L34,43.18l-9.87-6.74,11.98.06,3.33-11.34,3.49,11.29,4.66-.09,3.88-.07,3.44-.07-9.78,6.87,3.36,9.39h0c1.11-.43,2.24-.84,3.38-1.22h.02c1.03-.34,2.07-.66,3.12-.97.3-.09.61-.17.91-.25.83-.23,1.66-.44,2.5-.65l.86-.21c1.11-.25,2.22-.49,3.34-.7.32-.06.64-.12.97-.17.66-.11,1.32-.23,1.99-.32.95-.14,1.9-.26,2.85-.37.4-.04.8-.07,1.19-.11.8-.08,1.6-.14,2.4-.19.37-.02.74-.05,1.12-.07,1.15-.06,2.3-.1,3.47-.11,42.5-.3,77.19,32.61,77.49,73.5l18.58-18.84,18.86,18.59v-.15h0v-.15c-.37-52.85-43.51-95.53-96.36-95.02Z" fill="#a39154"/>
  </g>
</svg>
