<svg xmlns="http://www.w3.org/2000/svg" xmlns:xlink="http://www.w3.org/1999/xlink" width="24" height="24" viewBox="0 0 24 24"><defs><style>.a,.c{fill:#fff;}.a{stroke:#707070;}.b{clip-path:url(#a);}</style><clipPath id="a"><rect class="a" width="24" height="24" transform="translate(1637 905)"/></clipPath></defs><g class="b" transform="translate(-1637 -905)"><g transform="translate(1637 905)"><path class="c" d="M0,9.6V14.4a1.8,1.8,0,0,0,1.8,1.8H5.157V7.8H1.8A1.8,1.8,0,0,0,0,9.6Z"/><path class="c" d="M13.5,4.44a.612.612,0,0,0-.6-.024L6.237,7.8v8.4L12.9,19.585a.612.612,0,0,0,.889-.546V4.961A.611.611,0,0,0,13.5,4.44Z"/><path class="c" d="M21.24,11.881l2.549-2.55a.72.72,0,0,0-1.018-1.018l-2.549,2.549-2.55-2.549a.72.72,0,0,0-1.018,1.018l2.549,2.55-2.549,2.549a.72.72,0,0,0,1.018,1.018l2.55-2.549,2.549,2.549a.72.72,0,0,0,1.018-1.018Z"/></g></g></svg>