<svg xmlns="http://www.w3.org/2000/svg" xmlns:xlink="http://www.w3.org/1999/xlink" width="24" height="24" viewBox="0 0 24 24"><defs><style>.a,.c{fill:#fff;}.a{stroke:#707070;}.b{clip-path:url(#a);}</style><clipPath id="a"><rect class="a" width="24" height="24" transform="translate(1673 905)"/></clipPath></defs><g class="b" transform="translate(-1673 -905)"><g transform="translate(1673 905)"><path class="c" d="M0,9.668v4.664a1.754,1.754,0,0,0,1.754,1.754H5.019V7.915H1.754A1.754,1.754,0,0,0,0,9.668Z"/><path class="c" d="M13.14,4.642a.6.6,0,0,0-.581-.023L6.07,7.915v8.171l6.489,3.3a.6.6,0,0,0,.865-.531V5.15A.6.6,0,0,0,13.14,4.642Z"/><path class="c" d="M19.149,7.625a.642.642,0,0,0-.954.859,5.264,5.264,0,0,1,0,7.031.642.642,0,1,0,.954.86,6.548,6.548,0,0,0,0-8.75Z"/><path class="c" d="M21.51,5.5a.642.642,0,0,0-.954.86,8.445,8.445,0,0,1,0,11.281.642.642,0,1,0,.954.859,9.729,9.729,0,0,0,0-13Z"/><path class="c" d="M15.88,9.7a.642.642,0,0,0-.047.907,2.076,2.076,0,0,1,0,2.778.642.642,0,1,0,.954.859,3.36,3.36,0,0,0,0-4.5A.642.642,0,0,0,15.88,9.7Z"/></g></g></svg>