<svg id="レイヤー_1" data-name="レイヤー 1" xmlns="http://www.w3.org/2000/svg" viewBox="0 0 452.85 411.62"><defs><style>.cls-1{opacity:0.7;}.cls-2{fill:#c6d6e7;}.cls-3{opacity:0.65;}.cls-4{fill:#83a8cb;}.cls-5{fill:#2f6d77;}.cls-6{fill:#ffc159;}.cls-7{fill:#94aac4;}.cls-8{fill:#456a96;}.cls-9{fill:#e9edf4;}.cls-10{fill:#1755af;}.cls-11{fill:#fad7a4;}.cls-12{fill:#7a9fd3;}.cls-13{fill:#3e70bc;}.cls-14{fill:#000543;}.cls-15{fill:#fff;}.cls-16{fill:#632404;}.cls-17{fill:#e4c495;}.cls-18{fill:#d7e1fc;}.cls-19{fill:#6287bc;}.cls-20{fill:#888fbf;}.cls-21{fill:#515cd4;}.cls-22{fill:#7382fb;}</style></defs><title>daihyo_img</title><g class="cls-1"><rect class="cls-2" x="0.9" y="32.56" width="127.75" height="167.51"/><g class="cls-3"><rect class="cls-4" x="0.9" y="90.02" width="13.58" height="110.05"/><rect class="cls-4" x="12.59" y="135.37" width="15.16" height="64.7"/><rect class="cls-4" x="39.74" y="94.93" width="15.16" height="105.14"/><rect class="cls-4" x="78.57" y="107.35" width="24.94" height="92.72"/><rect class="cls-4" x="103.52" y="71.82" width="24.94" height="128.25"/><rect class="cls-4" x="53" y="59.4" width="29.05" height="140.67"/><rect class="cls-4" x="26.16" y="73.27" width="21.15" height="126.8"/></g><path class="cls-4" d="M128.49,200.71H.74a.68.68,0,0,1-.71-.64V32.56a.68.68,0,0,1,.71-.64H128.49a.68.68,0,0,1,.71.64V200.07A.68.68,0,0,1,128.49,200.71Zm-127-1.28H127.78V33.2H1.44Z" transform="translate(-0.03 -0.15)"/><path class="cls-4" d="M64.61,201a.67.67,0,0,1-.7-.64V32.56a.67.67,0,0,1,.7-.64.68.68,0,0,1,.71.64v167.8A.68.68,0,0,1,64.61,201Z" transform="translate(-0.03 -0.15)"/><path class="cls-4" d="M32.67,201a.67.67,0,0,1-.7-.64V32.56a.67.67,0,0,1,.7-.64.68.68,0,0,1,.71.64v167.8A.68.68,0,0,1,32.67,201Z" transform="translate(-0.03 -0.15)"/><rect class="cls-4" x="0.71" y="65.27" width="128.14" height="1.28"/><rect class="cls-4" x="0.71" y="98.76" width="128.14" height="1.28"/><rect class="cls-4" x="0.71" y="132.26" width="128.14" height="1.28"/><rect class="cls-4" x="0.71" y="165.75" width="128.14" height="1.28"/><path class="cls-4" d="M96.55,201a.68.68,0,0,1-.71-.64V32.56a.71.71,0,0,1,1.42,0v167.8A.68.68,0,0,1,96.55,201Z" transform="translate(-0.03 -0.15)"/><rect class="cls-2" x="290.77" y="32.56" width="127.75" height="167.51"/><g class="cls-3"><rect class="cls-4" x="290.77" y="90.02" width="13.88" height="110.05"/><rect class="cls-5" x="302.45" y="135.37" width="19.11" height="64.7"/><rect class="cls-4" x="321.05" y="94.93" width="34.75" height="105.14"/><rect class="cls-4" x="385.67" y="107.35" width="31.46" height="92.72"/><rect class="cls-4" x="353.42" y="59.4" width="36.63" height="140.67"/></g><path class="cls-4" d="M418.35,200.71H290.6a.68.68,0,0,1-.71-.64V32.56a.68.68,0,0,1,.71-.64H418.35a.68.68,0,0,1,.71.64V200.07A.68.68,0,0,1,418.35,200.71Zm-127-1.28H417.65V33.2H291.31Z" transform="translate(-0.03 -0.15)"/><path class="cls-4" d="M354.48,201a.68.68,0,0,1-.71-.64V32.56a.68.68,0,0,1,.71-.64.67.67,0,0,1,.7.64v167.8A.67.67,0,0,1,354.48,201Z" transform="translate(-0.03 -0.15)"/><path class="cls-4" d="M322.54,201a.68.68,0,0,1-.71-.64V32.56a.71.71,0,0,1,1.42,0v167.8A.68.68,0,0,1,322.54,201Z" transform="translate(-0.03 -0.15)"/><path class="cls-4" d="M418.74,66.7H290.6a.65.65,0,1,1,0-1.29H418.74a.65.65,0,1,1,0,1.29Z" transform="translate(-0.03 -0.15)"/><path class="cls-4" d="M418.74,100.19H290.6a.64.64,0,1,1,0-1.28H418.74a.64.64,0,1,1,0,1.28Z" transform="translate(-0.03 -0.15)"/><path class="cls-4" d="M418.74,133.68H290.6a.64.64,0,1,1,0-1.28H418.74a.64.64,0,1,1,0,1.28Z" transform="translate(-0.03 -0.15)"/><path class="cls-4" d="M418.74,167.17H290.6a.64.64,0,1,1,0-1.28H418.74a.64.64,0,1,1,0,1.28Z" transform="translate(-0.03 -0.15)"/><path class="cls-4" d="M386.41,201a.67.67,0,0,1-.7-.64V32.56a.67.67,0,0,1,.7-.64.68.68,0,0,1,.71.64v167.8A.68.68,0,0,1,386.41,201Z" transform="translate(-0.03 -0.15)"/></g><rect class="cls-4" x="37.75" width="0.62" height="47.61"/><path class="cls-6" d="M42.81,54.73a4.73,4.73,0,1,0-4.72,5A4.84,4.84,0,0,0,42.81,54.73Z" transform="translate(-0.03 -0.15)"/><polygon class="cls-4" points="38.06 33.45 24.66 54.59 51.46 54.59 38.06 33.45"/><path class="cls-7" d="M272.48,381.37h62.85c6.55,0,11.89,4.6,11.89,10.24v5.53a2.25,2.25,0,0,1-4.5,0v-5.53c0-3.16-3.32-5.73-7.39-5.73H272.48c-4.07,0-7.39,2.57-7.39,5.73v5.53a2.25,2.25,0,0,1-4.5,0v-5.53C260.59,386,265.93,381.37,272.48,381.37Z" transform="translate(-0.03 -0.15)"/><path class="cls-8" d="M267.7,405.91a4.65,4.65,0,1,1-4.64-5.07A4.87,4.87,0,0,1,267.7,405.91Z" transform="translate(-0.03 -0.15)"/><path class="cls-8" d="M268.47,406.3h-11a1.6,1.6,0,0,1-1.33-1.76v-4.36a1.59,1.59,0,0,1,1.33-1.75h11c.73,0,1.32.79,1.32,1.75v4.36C269.79,405.51,269.2,406.3,268.47,406.3Z" transform="translate(-0.03 -0.15)"/><path class="cls-8" d="M360.82,131.86H294c-6.77,0-13,6-13.87,13.44L262.86,294h90.82L371.57,145.3C372.43,137.91,367.59,131.86,360.82,131.86Z" transform="translate(-0.03 -0.15)"/><path class="cls-8" d="M345,294,360.93,145.3c.79-7.39-3.68-13.44-9.93-13.44H289.37c-6.25,0-12,6-12.8,13.44L260.62,294Z" transform="translate(-0.03 -0.15)"/><path class="cls-9" d="M343.08,234.57c-.11,7.77-1.42,15.51-1.17,23.28s2.06,15.65.17,23.17c-1,4.09-3.13,8.07-2.66,12.26a2.64,2.64,0,0,1-.28,2.1,1.6,1.6,0,0,1-2.32-.34,4.61,4.61,0,0,1-.69-2.55q-2.07-30.89-2-61.87a219.78,219.78,0,0,1,.86-22.37,38.89,38.89,0,0,1,1.67-8.71c.45-1.34,1.2-2.8,2.57-3.16,3.27-.88,2.26,4,2.2,5.5a95.82,95.82,0,0,0,.33,11C342.25,220.09,343.19,227.3,343.08,234.57Z" transform="translate(-0.03 -0.15)"/><path class="cls-9" d="M215.36,164.81c1,3.14,2.32,6.16,3.23,9.32,1.62,5.6,1.89,11.54,3.81,17,1,2.79,2.36,5.44,3.15,8.29,1,3.49,1,7.23,2.41,10.58s4.79,6.34,8.31,5.5a10,10,0,0,0,2.34-1c1.6-.82,4-3.14,5.63-4,2.95-1.51,7.92-7.65,10-10.2,1.53-1.87,4.5-3.46,4.42-5.6-.19-4.83,2-16.1,1.17-20.87-.12-.66-9.76,9.71-10.29,9.29-1-.79-2.45,0-3.39.9a29.14,29.14,0,0,0-6.19,8.1c-1.3,2.49-3,5.63-5.75,5.43-2.62-.19-3.9-3.22-4.56-5.76-4-15.43-5.84-31.77-13.92-45.5a2.11,2.11,0,0,0-1.08-1.08C210.66,144.08,214.75,162.83,215.36,164.81Z" transform="translate(-0.03 -0.15)"/><path class="cls-9" d="M229.71,213.05c.73,1,2.24,2.58,5.81,2.37,2.73-.16,5.13-1.23,6.14-3.77l27.62-58L256,146.82c-1.24-.77-2.89,4.32-3.45,5.67L233.32,186Z" transform="translate(-0.03 -0.15)"/><path class="cls-9" d="M229.71,213.05l-17.49-63.16c-.24-1.33.6-3.21,1.95-3.12l13.28-.11,13.06,46.44Z" transform="translate(-0.03 -0.15)"/><path class="cls-10" d="M216.75,121.59h10.87a1,1,0,0,0,1-1.49,2.34,2.34,0,0,0-2-1.49H215.7a1,1,0,0,0-1,1.49A2.34,2.34,0,0,0,216.75,121.59Z" transform="translate(-0.03 -0.15)"/><path class="cls-7" d="M225.22,165.27h25.59a1.32,1.32,0,0,0,1.25-1.93l-14.61-41.56a3,3,0,0,0-2.6-1.92H209.26a1.32,1.32,0,0,0-1.25,1.92l14.61,41.56A3,3,0,0,0,225.22,165.27Z" transform="translate(-0.03 -0.15)"/><path class="cls-11" d="M214.35,142.2a1.15,1.15,0,0,0,.6-1.52l-1.47-3.39a1.16,1.16,0,0,0-2.12.93l1.47,3.39A1.15,1.15,0,0,0,214.35,142.2Z" transform="translate(-0.03 -0.15)"/><path class="cls-11" d="M213.35,151.7a1.46,1.46,0,0,0,2,.57L221.4,149a1.46,1.46,0,1,0-1.4-2.56l-6.07,3.33A1.47,1.47,0,0,0,213.35,151.7Z" transform="translate(-0.03 -0.15)"/><path class="cls-11" d="M211.81,149.86a1.47,1.47,0,0,0,2,.58l8.28-4.54a1.46,1.46,0,1,0-1.4-2.56l-8.28,4.54A1.47,1.47,0,0,0,211.81,149.86Z" transform="translate(-0.03 -0.15)"/><path class="cls-11" d="M209.24,144.78a1.44,1.44,0,0,0,2,.58l8.28-4.54a1.46,1.46,0,1,0-1.4-2.56l-8.28,4.54A1.46,1.46,0,0,0,209.24,144.78Z" transform="translate(-0.03 -0.15)"/><path class="cls-11" d="M210.6,147.3a1.47,1.47,0,0,0,2,.58l9-5a1.45,1.45,0,1,0-1.4-2.55l-9,5A1.46,1.46,0,0,0,210.6,147.3Z" transform="translate(-0.03 -0.15)"/><path class="cls-11" d="M209.14,144.42s1.7,5.23,4.37,7.51l.85-1.48S215,144,209.14,144.42Z" transform="translate(-0.03 -0.15)"/><polygon class="cls-11" points="258.95 383 265.19 404.63 256.26 406.42 251.67 402.19 252.05 401.19 247.03 385.38 258.95 383"/><path class="cls-12" d="M252.46,400.59l-12.22,4.15c-3,1-3.55,3.11-2.36,4.67l28.32-.66-1.14-6.24a2.34,2.34,0,0,0-2.31-1.92Z" transform="translate(-0.03 -0.15)"/><path class="cls-13" d="M266.2,408.75l.31,1.06c.19.65-.6,1.27-1.65,1.28l-22,.23a6,6,0,0,1-5-1.91Z" transform="translate(-0.03 -0.15)"/><rect class="cls-13" x="257.82" y="405.95" width="5.51" height="1.99" rx="0.46"/><polygon class="cls-11" points="225.81 383.43 232.05 405.06 223.12 406.86 218.53 402.62 218.91 401.63 213.89 385.82 225.81 383.43"/><path class="cls-12" d="M219.32,401l-12.22,4.15c-3,1-3.55,3.11-2.36,4.67l28.32-.66L231.92,403a2.34,2.34,0,0,0-2.31-1.92Z" transform="translate(-0.03 -0.15)"/><path class="cls-14" d="M233.06,409.19l.31,1.05c.19.66-.6,1.27-1.65,1.29l-22,.23a6,6,0,0,1-5-1.91Z" transform="translate(-0.03 -0.15)"/><rect class="cls-13" x="224.68" y="406.39" width="5.51" height="1.99" rx="0.46"/><path class="cls-7" d="M303,400.47c1.39,0,2.53-1.63,2.53-3.62V378.14c0-2-1.14-3.63-2.53-3.63s-2.54,1.63-2.54,3.63v18.71C300.46,398.84,301.6,400.47,303,400.47Z" transform="translate(-0.03 -0.15)"/><ellipse class="cls-8" cx="345.01" cy="405.35" rx="4.77" ry="5.22"/><path class="cls-8" d="M339.48,405.9h11.35c.75,0,1.37-.82,1.37-1.81V399.6a1.64,1.64,0,0,0-1.37-1.81H339.48a1.64,1.64,0,0,0-1.37,1.81v4.49C338.11,405.08,338.73,405.9,339.48,405.9Z" transform="translate(-0.03 -0.15)"/><rect class="cls-8" x="297.5" y="397.06" width="10.73" height="8.09" rx="1.49"/><path class="cls-8" d="M302.7,410.75a2.42,2.42,0,0,0,2.41-2.41v-3.61a2.41,2.41,0,1,0-4.82,0v3.61A2.41,2.41,0,0,0,302.7,410.75Z" transform="translate(-0.03 -0.15)"/><rect class="cls-7" x="298.41" y="354.03" width="8.7" height="32.27" rx="4.03"/><path class="cls-8" d="M302.85,366.37c4.18,0,7.6-3,7.6-6.75v-55.9c0-3.71-3.42-6.74-7.6-6.74s-7.6,3-7.6,6.74v55.9C295.25,363.33,298.67,366.37,302.85,366.37Z" transform="translate(-0.03 -0.15)"/><path class="cls-7" d="M286.06,314.21H320.2a5.82,5.82,0,1,0,0-11.63H286.06a5.82,5.82,0,1,0,0,11.63Z" transform="translate(-0.03 -0.15)"/><path class="cls-8" d="M353.6,294v5.85a7.86,7.86,0,0,1-7.85,7.85H227.41a8.65,8.65,0,0,1-8.64-8.7l0-5Z" transform="translate(-0.03 -0.15)"/><path class="cls-15" d="M270.63,162.09c0,.07,0,0,0,0Z" transform="translate(-0.03 -0.15)"/><path class="cls-9" d="M250.76,292c1.56-39.86,8-101.45,8.63-116l-7.09-23.46c6-18,32.67-19.71,32.67-19.71L264.4,292Z" transform="translate(-0.03 -0.15)"/><path class="cls-13" d="M191.85,276.25c5.69-7.42,15.42-11.41,30.61-12.57,10.33-.79,24.63-1.18,39.76-1.61,17.42-.48,35.43-1,47.43-2.12,1.33-.13,4.88-.47,6.34,2.41s-.76,5.57-3.65,8.82c-1.92,2.17-5.14,5.8-5.17,7.86l0,2.43-2.29.81c-2.58.93-5.1,2-7.42,3.08-11.28,5.1-13.73,6.33-15.55,10.66l-.86,2-2.21.1c-16,.73-37.94.94-53.45,1.06a7.43,7.43,0,0,0-7.37,7.55c.63,29.89,6.38,56.09,15.37,82.8a4.21,4.21,0,0,1-4,5.54H215.08a5.22,5.22,0,0,1-4.87-3.34c-.94-2.47-1.92-4.94-4.38-11.07-5.46-13.56-11.1-27.59-13.49-40.9q-.9-5-1.79-9.67C186.15,306.71,182.67,288.22,191.85,276.25Z" transform="translate(-0.03 -0.15)"/><path class="cls-13" d="M224.9,275.86c5.69-7.42,15.42-11.41,30.61-12.57,10.33-.79,24.62-1.19,39.75-1.61,7-.19,14-.39,20.73-.63l3.63-.13v29.26l-1.38,1.05a9.81,9.81,0,0,0-3.32,4.4l-.86,2-2.21.1c-16.9.77-40.51,1-54.74,1.06a6.16,6.16,0,0,0-6.1,6.26c.48,30.47,6.33,57.14,15.35,83.93a4.62,4.62,0,0,1-4.38,6.09H247.1a3.49,3.49,0,0,1-3.27-2.26c-1.55-4.07-3.2-8.18-5-12.52-5.45-13.58-11.1-27.61-13.49-40.92-.59-3.32-1.2-6.55-1.79-9.68C219.2,306.32,215.72,287.82,224.9,275.86Z" transform="translate(-0.03 -0.15)"/><path class="cls-12" d="M285.3,132.68l1.26-.25q1.49-.3,3-.54A141,141,0,0,1,317,130.51l-2.2,134.93s-30.55-.57-42.65-.86a4.53,4.53,0,0,1-4.39-5.13L285,132.75Z" transform="translate(-0.03 -0.15)"/><path class="cls-9" d="M317,130.51l2.74.11c2.11.11,4.19.24,6.2.4,13.66.53,26.47,20.14,19.46,41.64l-5.71,93.2-1.34,31.4-24.25.62Z" transform="translate(-0.03 -0.15)"/><path class="cls-9" d="M342.35,293.17l-.89,22.66c-.15,3.82-2.75,6.82-5.92,6.82H319.91c-2.52,0-4.46-2.49-4.32-5.54l1.15-23.71Z" transform="translate(-0.03 -0.15)"/><path class="cls-7" d="M275.7,195.79a.73.73,0,0,1-.73-.69l-2-40.25a3.36,3.36,0,0,1,1.76-3.16L277,150.5a.33.33,0,0,0,.16-.24.23.23,0,0,0,0-.21l-3.46-3.78a2.21,2.21,0,0,1,0-2.93l9.94-11.17a.73.73,0,1,1,1.09,1l-9.95,11.17a.75.75,0,0,0,0,1l3.46,3.79a1.7,1.7,0,0,1,.41,1.44,1.82,1.82,0,0,1-.92,1.28L275.41,153a1.93,1.93,0,0,0-1,1.79l2,40.25a.73.73,0,0,1-.7.77Z" transform="translate(-0.03 -0.15)"/><path class="cls-7" d="M257.27,245.08h-3.8a.73.73,0,1,1,0-1.45h3.8a.73.73,0,1,1,0,1.45Z" transform="translate(-0.03 -0.15)"/><path class="cls-15" d="M261.13,174.06H273.8A2.2,2.2,0,0,0,276,172l.27-5.65a2,2,0,0,0-2-2.07H261.59a2.2,2.2,0,0,0-2.17,2.07l-.27,5.65A2,2,0,0,0,261.13,174.06Z" transform="translate(-0.03 -0.15)"/><path class="cls-13" d="M267.94,165a.74.74,0,0,1-.73-.76l.11-2.25a.68.68,0,0,1,.76-.69.74.74,0,0,1,.7.76l-.11,2.24A.74.74,0,0,1,267.94,165Z" transform="translate(-0.03 -0.15)"/><path class="cls-7" d="M316.43,197h-.13a.72.72,0,0,1-.58-.85l7.59-41.54a2,2,0,0,0-.54-1.87l-1.72-1.38a1.71,1.71,0,0,1-.62-1.26,1.87,1.87,0,0,1,.52-1.43l3.45-3.45a1,1,0,0,0,.13-1.06l-6.59-12.81a.72.72,0,1,1,1.29-.66l6.59,12.78a2.42,2.42,0,0,1-.39,2.78L322,149.68a.41.41,0,0,0-.1.32.27.27,0,0,0,.07.2l1.72,1.38a3.36,3.36,0,0,1,1.06,3.28l-7.59,41.53A.73.73,0,0,1,316.43,197Z" transform="translate(-0.03 -0.15)"/><path class="cls-13" d="M307.38,179.63a.79.79,0,0,1-.39-.11.74.74,0,0,1-.23-1c14-22.24,5.65-47.51,5.56-47.76a.73.73,0,0,1,1.38-.47c.09.26,8.64,26.17-5.7,49A.72.72,0,0,1,307.38,179.63Z" transform="translate(-0.03 -0.15)"/><path class="cls-13" d="M303.86,179a3.59,3.59,0,0,0,3.62,3.8,4,4,0,0,0,4-3.8,3.61,3.61,0,0,0-3.63-3.81A4,4,0,0,0,303.86,179Z" transform="translate(-0.03 -0.15)"/><path class="cls-13" d="M285,193.85a.73.73,0,1,1,0-1.45c2.23,0,2.58-2.3,2.63-3.28l1.15-24.25a3,3,0,0,0-3.06-3.21,3.48,3.48,0,0,0-3.44,3.28l-1.14,24.24c-.07,1.42.11,2.33.56,2.8a1.57,1.57,0,0,0,1.21.42.73.73,0,1,1,0,1.45,3,3,0,0,1-2.27-.87c-.74-.78-1.05-2-1-3.86l1.15-24.25a5,5,0,0,1,4.89-4.67,4.48,4.48,0,0,1,4.51,4.74l-1.14,24.24C288.94,192.06,287.37,193.85,285,193.85Z" transform="translate(-0.03 -0.15)"/><path class="cls-13" d="M285.09,161.37a.74.74,0,0,1-.73-.66,65.78,65.78,0,0,1,3.92-29,.73.73,0,0,1,1.34.57,64.09,64.09,0,0,0-3.8,28.24.74.74,0,0,1-.66.8Z" transform="translate(-0.03 -0.15)"/><path class="cls-7" d="M330.65,179.63h-8.42a.73.73,0,1,1,0-1.46h8.42a.73.73,0,1,1,0,1.46Z" transform="translate(-0.03 -0.15)"/><path class="cls-10" d="M284.1,193.05a.92.92,0,0,0,.93,1,1,1,0,0,0,1-1,.92.92,0,0,0-.94-1A1,1,0,0,0,284.1,193.05Z" transform="translate(-0.03 -0.15)"/><path class="cls-10" d="M281.84,193.14a.94.94,0,0,0,.94,1,1,1,0,0,0,1-1,.93.93,0,0,0-.94-1A1,1,0,0,0,281.84,193.14Z" transform="translate(-0.03 -0.15)"/><path class="cls-7" d="M327.63,260.61H316.4a.73.73,0,0,1,0-1.46h11.23a.73.73,0,0,1,0,1.46Z" transform="translate(-0.03 -0.15)"/><path class="cls-7" d="M333.92,260.61h-4.14a.73.73,0,0,1,0-1.46h4.14a.73.73,0,1,1,0,1.46Z" transform="translate(-0.03 -0.15)"/><rect class="cls-13" x="158.28" y="225.47" width="3.51" height="185.09"/><rect class="cls-13" x="75.79" y="225.47" width="3.8" height="185.09"/><path class="cls-8" d="M179.08,126.16h-7.79a6.87,6.87,0,0,1,6.87,6.87v66.34a6.88,6.88,0,0,1-6.87,6.87h7.79a6.87,6.87,0,0,0,6.86-6.87V133A6.86,6.86,0,0,0,179.08,126.16Z" transform="translate(-0.03 -0.15)"/><path class="cls-7" d="M178.16,199.37V133a6.87,6.87,0,0,0-6.87-6.87H89.38A6.86,6.86,0,0,0,82.51,133v66.34a6.87,6.87,0,0,0,6.87,6.87h81.91A6.88,6.88,0,0,0,178.16,199.37Z" transform="translate(-0.03 -0.15)"/><rect class="cls-8" x="138.82" y="206.09" width="5.82" height="16.36"/><path class="cls-7" d="M117.36,206.24v16.35h21.49V206.24Z" transform="translate(-0.03 -0.15)"/><path class="cls-11" d="M295.07,213.3l-19.43,4.85c-.87.18,1.85,4.84,2.75,4.85l16.26-.09Z" transform="translate(-0.03 -0.15)"/><path class="cls-9" d="M293.89,208.87l46.88-1.47a3.09,3.09,0,0,0,2.83-4.09l-10.88-32.24,14.11-22.31L368,217.25a4.61,4.61,0,0,1-4.46,5.66l-70.05-.12Z" transform="translate(-0.03 -0.15)"/><rect class="cls-13" x="70.66" y="222.8" width="308.94" height="9.88"/><rect class="cls-8" x="98.88" y="220.54" width="61.77" height="2.26"/><rect class="cls-13" x="289.59" y="222.97" width="4.28" height="187.59"/><rect class="cls-13" x="286.58" y="222.78" width="94.39" height="9.89"/><path class="cls-8" d="M221.6,219.88c.11,4.23,5.7,3.13,56.16,3.13,3.17,0,5.73-1.37,5.78-3.07-.22-4.24-6.07-3.09-56.17-3.09C224.24,216.85,221.69,218.2,221.6,219.88Z" transform="translate(-0.03 -0.15)"/><path class="cls-7" d="M202.52,219.88c.22-4,8.77-3,26.32-3,14.89,0,23.65-1,23.85,3,0,1.76-2.61,3.13-5.77,3.13H227.18c-15.81,0-24.54,1-24.66-3.07Z" transform="translate(-0.03 -0.15)"/><path class="cls-16" d="M270.3,89.07c.34-.51.84-.89,1.14-1.43.66-1.2.1-2.62,0-4s1.21-3.09,2.21-2.34c-.71-1.88-1.38-4.17-.24-5.93,2.14-3.31,7.67-.71,10.13-3.77.74-.91,1-2.19,1.88-3a3.24,3.24,0,0,1,4.15.12,10.26,10.26,0,0,1,2,2.32,2.2,2.2,0,0,0,.36.13,3.88,3.88,0,0,0,2.66-.42c2.1-.77,4.31.7,5.8,2.83.62.9,2.08-.67,2.77.17,1.58,1.9,4.46,2.52,5.31,4.93.46,1.3.19,2.89.81,4.11s2.19,1.94,2.55,3.38c.58,2.28-1.23,4.68-1,7,.08,1.08-.77,2.2-.74,2.61a5.35,5.35,0,0,1-.57,2.57,57,57,0,0,1-.82,8.75,15.74,15.74,0,0,1-2.05,5.81s-1.51,2.12-1.51,2.1a20.7,20.7,0,0,0-.55-4.15,13.24,13.24,0,0,0,.5-4.67h.07c2.11-.37,3.45-2.73,3-5.27s-2.38-4.15-4.41-3.93L301,98.11c-9.21,0-8.13-9.87-16.52-10-5.45-.09-8.52,1.39-10,2.44a15.07,15.07,0,0,0-.66,7.16l-.08,0c0-.12-1.2-.88-1.24-1.8l-.09.11C270.67,95.06,268.91,91.15,270.3,89.07Z" transform="translate(-0.03 -0.15)"/><path class="cls-11" d="M284.45,88.12c8.39.12,7.31,10,16.52,10L303.7,97c2-.22,4,1.48,4.41,3.93s-.88,4.9-3,5.27h-.07a13.24,13.24,0,0,1-.5,4.67,16.61,16.61,0,0,1-12.88,11.24c-7.95,1.42-14.24-3.79-15.7-12l-2.14-12c0-.14,0-.28-.05-.42a15.07,15.07,0,0,1,.66-7.16C275.93,89.51,279,88,284.45,88.12Z" transform="translate(-0.03 -0.15)"/><path class="cls-11" d="M294,137.11l-5.06-32.54a2.67,2.67,0,0,1,2.17-3.07l10.34-1.61a2.66,2.66,0,0,1,3,2.25l5.06,32.52C298.87,144.89,294.2,138.57,294,137.11Z" transform="translate(-0.03 -0.15)"/><path class="cls-14" d="M286.44,94.71l3.28-.56a.88.88,0,1,1,.3,1.74l-3.28.57a.89.89,0,1,1-.3-1.75Z" transform="translate(-0.03 -0.15)"/><path class="cls-14" d="M273.47,96.77l3.28-.57a.88.88,0,1,1,.3,1.74l-3.28.57a.88.88,0,0,1-.3-1.74Z" transform="translate(-0.03 -0.15)"/><path class="cls-14" d="M276.42,101c.15.85.72,1.47,1.28,1.37s.89-.87.74-1.72-.72-1.47-1.28-1.37S276.28,100.18,276.42,101Z" transform="translate(-0.03 -0.15)"/><path class="cls-14" d="M288.77,99.14c.15.86.72,1.47,1.28,1.38s.88-.87.74-1.73-.72-1.47-1.28-1.37S288.63,98.29,288.77,99.14Z" transform="translate(-0.03 -0.15)"/><path class="cls-17" d="M281.36,105.28l.07-.31a1.76,1.76,0,0,0,1.49,1.24l1.79.18a1.34,1.34,0,0,0,1.34-.79l.06.16a1.37,1.37,0,0,1-1.41,1.88l-1.79-.18A1.77,1.77,0,0,1,281.36,105.28Z" transform="translate(-0.03 -0.15)"/><path class="cls-15" d="M290.24,109.88l-4.8,2.2S289,113.57,290.24,109.88Z" transform="translate(-0.03 -0.15)"/><path class="cls-13" d="M308.7,128.85s-4.64,8.17-10,9.23l1.41,9.18s11.53-4.59,11.34-16.93Z" transform="translate(-0.03 -0.15)"/><path class="cls-13" d="M293.58,130.05s.58,6.06,5.25,8.07l-4.68,8.23a17.48,17.48,0,0,1-4.25-14.19Z" transform="translate(-0.03 -0.15)"/><path class="cls-18" d="M296.91,146.49a1.67,1.67,0,0,1-.57-.65L295,143.31c-.92-1.76.25-4.53,1.86-4.4l3.27.27c1.6.13,2,3,.69,4.61l-1.94,2.26a2,2,0,0,1-.51.42l-.73,54.36-7.75,7.83-4.66-8.53Z" transform="translate(-0.03 -0.15)"/><path class="cls-7" d="M293.41,214.78a.74.74,0,0,1-.73-.75l.06-2.25a3.49,3.49,0,0,1,3.36-3.37L340,207a2.63,2.63,0,0,0,2.41-3.48l-10.77-31.9a.72.72,0,0,1,.46-.92.73.73,0,0,1,.92.46l10.77,31.9a4.1,4.1,0,0,1-3.75,5.4l-43.94,1.38a2,2,0,0,0-1.94,1.95l-.06,2.25A.72.72,0,0,1,293.41,214.78Z" transform="translate(-0.03 -0.15)"/><path class="cls-9" d="M354.76,163.89c1,3.27,1.61,6.65,2.65,9.9,1.34,4.17,3.4,8.08,5,12.15,3.56,8.95,5,18.59,6.34,28.12a11,11,0,0,1,.05,4.36,7.83,7.83,0,0,1-4.62,4.8c-6.95-24.88-17.64-48.52-26.9-72.63-1-2.6-8-14.51-5.62-15.94C339.17,130.16,353.31,159.22,354.76,163.89Z" transform="translate(-0.03 -0.15)"/><path class="cls-9" d="M340.12,290.46a19.55,19.55,0,0,1,2.12,2.54c1.25,2.2.47,4.92.17,7.43a18,18,0,0,0,.49,6.69c.48,1.82,1.26,3.59,1.29,5.47.08,4.37-3.87,7.82-7.95,9.39l.69-33.17a2.82,2.82,0,0,1,.58-2C339.18,285.16,339.54,289.74,340.12,290.46Z" transform="translate(-0.03 -0.15)"/><path class="cls-9" d="M315.74,302.06a41,41,0,0,1,.41,5.23c.05,1.57.1,3.14.16,4.71.35.18.57-.6.62-1.2.16-2.28.16-4.59.17-6.88l0-6.91a2.72,2.72,0,0,0-.34-1.66c-.37-.4-.86,0-1.23.36-.85.86-1.87,1.08-1.29,2.66A18.57,18.57,0,0,1,315.74,302.06Z" transform="translate(-0.03 -0.15)"/><path class="cls-8" d="M252,318.57c1,3.09,2.49,6,3.12,9.19.88,4.45,0,9.05.33,13.57.67,8.71,5.89,16.56,6.78,25.25.25,2.42.16,4.87.63,7.26,1.05,5.39,4.91,10.6,3.31,15.85-.37,1.24-1.6,2.58-2.75,2a2.63,2.63,0,0,1-1.08-1.89c-2.86-12.49-5.73-25-8.12-37.56-2.32-12.17-4.2-24.43-6.08-36.67-.84-5.54-1.68-11.25-.27-16.67.45-1.72,2-4.4,4.17-3.17,2,1.14.67,3.65.15,5.32A29.21,29.21,0,0,0,252,318.57Z" transform="translate(-0.03 -0.15)"/><path class="cls-8" d="M219.53,315.5c.29,3.51.58,7,.86,10.52.23,2.72.45,5.44,1,8.13,1,5.56,3.23,10.85,4.28,16.4.88,4.6,1,9.31,1.84,13.91,1.72,8.92,6.43,17.33,6.27,26.41a3.82,3.82,0,0,1-.45,2,1.41,1.41,0,0,1-1.8.56,2,2,0,0,1-.76-1.23c-4.45-13.91-8.91-27.86-11.59-42.22-2.3-12.32-3.28-24.84-4.24-37.34q-.42-5.34-.83-10.68a7.48,7.48,0,0,1,.18-3,2.54,2.54,0,0,1,2.19-1.83c3.25,0,2.78,4.69,2.67,6.61A85.67,85.67,0,0,0,219.53,315.5Z" transform="translate(-0.03 -0.15)"/><path class="cls-19" d="M246.75,395.84a4.26,4.26,0,0,1-4-2.73c-1.54-4.07-3.19-8.17-4.93-12.51-5.48-13.62-11.13-27.69-13.54-41.06-.58-3.25-1.17-6.41-1.75-9.48l0-.19c-4.43-23.6-7.94-42.23,1.44-54.46,5.83-7.59,15.72-11.67,31.13-12.85,3.43-.26,7.51-.49,12.48-.71a.71.71,0,0,1,.76.69.73.73,0,0,1-.7.76c-4.95.22-9,.45-12.43.72-15,1.14-24.53,5-30.08,12.28-9,11.71-5.53,30.06-1.16,53.3l0,.19c.58,3.07,1.18,6.24,1.76,9.49,2.38,13.23,8,27.22,13.44,40.76,1.76,4.36,3.41,8.47,5,12.55a2.77,2.77,0,0,0,2.59,1.79.73.73,0,0,1,0,1.46Z" transform="translate(-0.03 -0.15)"/><rect class="cls-13" x="276.49" y="226.39" width="3.47" height="185.23"/><rect class="cls-15" x="402.81" y="67.05" width="49.79" height="64.55" rx="5.6"/><path class="cls-20" d="M449.84,132h-44.2a3,3,0,0,1-3.05-3V70a3,3,0,0,1,3.05-3h44.2a3,3,0,0,1,3,3v59A3,3,0,0,1,449.84,132Zm-44.2-64.55A2.55,2.55,0,0,0,403.09,70v59a2.55,2.55,0,0,0,2.55,2.54h44.2a2.54,2.54,0,0,0,2.54-2.54V70a2.54,2.54,0,0,0-2.54-2.54Z" transform="translate(-0.03 -0.15)"/><ellipse class="cls-2" cx="417.58" cy="81.21" rx="8.01" ry="8"/><rect class="cls-4" x="416.36" y="74.93" width="2.45" height="12.56" rx="1.01"/><path class="cls-4" d="M422.72,82.77H412.5c-.95,0-1.48-.53-1.48-1.18s.53-1.18,1.48-1.18h10.22a1.24,1.24,0,0,1,0,2.36Z" transform="translate(-0.03 -0.15)"/><path class="cls-2" d="M446,94.32H410.45a.61.61,0,0,1-.6-.61.6.6,0,0,1,.6-.6H446a.6.6,0,0,1,.6.6A.61.61,0,0,1,446,94.32Z" transform="translate(-0.03 -0.15)"/><rect class="cls-2" x="433.67" y="113.22" width="12.88" height="1.21" rx="0.5"/><rect class="cls-2" x="433.67" y="116.6" width="12.88" height="1.21" rx="0.5"/><rect class="cls-2" x="433.67" y="119.99" width="12.88" height="1.21" rx="0.5"/><rect class="cls-2" x="433.67" y="123.37" width="12.88" height="1.21" rx="0.5"/><rect class="cls-2" x="426.56" y="79.56" width="19.99" height="1.21" rx="0.5"/><rect class="cls-2" x="426.56" y="82.94" width="19.99" height="1.21" rx="0.5"/><rect class="cls-2" x="426.56" y="85.92" width="19.99" height="1.21" rx="0.5"/><rect class="cls-2" x="426.67" y="89.21" width="19.99" height="1.21" rx="0.5"/><path class="cls-2" d="M446,97.94H410.45a.6.6,0,0,1-.6-.6.61.61,0,0,1,.6-.61H446a.61.61,0,0,1,.6.61A.6.6,0,0,1,446,97.94Z" transform="translate(-0.03 -0.15)"/><path class="cls-2" d="M446,101.52H410.45a.6.6,0,0,1-.6-.6.61.61,0,0,1,.6-.61H446a.61.61,0,0,1,.6.61A.6.6,0,0,1,446,101.52Z" transform="translate(-0.03 -0.15)"/><path class="cls-2" d="M446,105.1H410.45a.6.6,0,0,1-.6-.6.61.61,0,0,1,.6-.61H446a.61.61,0,0,1,.6.61A.6.6,0,0,1,446,105.1Z" transform="translate(-0.03 -0.15)"/><path class="cls-2" d="M446,108.68H410.45a.6.6,0,0,1,0-1.2H446a.6.6,0,0,1,0,1.2Z" transform="translate(-0.03 -0.15)"/><rect class="cls-2" x="408.83" y="112.41" width="22.84" height="13.04" rx="3.71"/><rect class="cls-15" x="418.43" y="119.9" width="9.65" height="2.9" rx="1.28" transform="translate(-12.03 187.73) rotate(-24.69)"/><path class="cls-21" d="M425.87,118.55,422.68,120l1.22,2.63,3.19-1.49a1.26,1.26,0,0,0,.62-1.69l-.14-.31A1.28,1.28,0,0,0,425.87,118.55Z" transform="translate(-0.03 -0.15)"/><rect class="cls-15" x="412.63" y="117.73" width="9.64" height="2.9" rx="1.2" transform="matrix(0.39, -0.92, 0.92, 0.39, 143.12, 455.52)"/><path class="cls-22" d="M417.51,115.35l-1.38,3.24,2.67,1.13,1.38-3.24a1.28,1.28,0,0,0-.68-1.67l-.31-.14A1.29,1.29,0,0,0,417.51,115.35Z" transform="translate(-0.03 -0.15)"/></svg>